<svg width="4" height="4" viewBox="0 0 10 10" fill="none" xmlns="http://www.w3.org/2000/svg">
<path d="M2.1084 7.19553L0 9.30344L0.696564 10L2.80447 7.8916C3.58879 8.52034 4.56434 8.86231 5.56956 8.86088C8.01516 8.86088 10 6.87605 10 4.43044C10 1.98484 8.01516 0 5.56956 0C3.12395 0 1.13912 1.98484 1.13912 4.43044C1.13769 5.43566 1.47966 6.41121 2.1084 7.19553ZM3.09589 6.83027C2.47115 6.18779 2.12225 5.32659 2.12366 4.43044C2.12366 2.52634 3.66594 0.984543 5.56956 0.984543C7.47366 0.984543 9.01546 2.52634 9.01546 4.43044C9.01546 6.33406 7.47366 7.87634 5.56956 7.87634C4.67341 7.87775 3.81221 7.52885 3.16973 6.90411L3.09589 6.83027Z" fill="#414141"/>
</svg>
