<svg width="14" height="16" viewBox="0 0 14 16" fill="none" xmlns="http://www.w3.org/2000/svg">
<path d="M3.66699 14.3371L3.10449 11.4233L4.55012 11.155V14.7325L3.66699 14.3371Z" fill="black"/>
<path d="M3.66699 14.3371L3.10449 11.4233L4.55012 11.155V14.7325L3.66699 14.3371Z" fill="url(#paint0_linear_542_435)"/>
<path d="M3.66699 14.3371L3.10449 11.4233L4.55012 11.155V14.7325L3.66699 14.3371Z" fill="url(#paint1_linear_542_435)"/>
<path d="M12.179 12.4079L9.49414 12.8033L9.30908 11.3706L12.2425 11.4544L12.179 12.4079Z" fill="black"/>
<path d="M12.179 12.4079L9.49414 12.8033L9.30908 11.3706L12.2425 11.4544L12.179 12.4079Z" fill="url(#paint2_linear_542_435)"/>
<path d="M12.179 12.4079L9.49414 12.8033L9.30908 11.3706L12.2425 11.4544L12.179 12.4079Z" fill="url(#paint3_linear_542_435)"/>
<path d="M7.78882 12.2277L7.56494 11.4982L9.19957 10.7202L9.31375 11.353H9.45888C9.55057 11.8593 9.55563 12.5568 9.54663 12.8425C9.52357 12.8498 9.37732 12.8746 9.0325 12.9128C8.23825 13.0394 7.87263 12.509 7.78938 12.2277H7.78882Z" fill="black"/>
<path d="M7.78882 12.2277L7.56494 11.4982L9.19957 10.7202L9.31375 11.353H9.45888C9.55057 11.8593 9.55563 12.5568 9.54663 12.8425C9.52357 12.8498 9.37732 12.8746 9.0325 12.9128C8.23825 13.0394 7.87263 12.509 7.78938 12.2277H7.78882Z" fill="url(#paint4_radial_542_435)"/>
<path d="M7.78882 12.2277L7.56494 11.4982L9.19957 10.7202L9.31375 11.353H9.45888C9.55057 11.8593 9.55563 12.5568 9.54663 12.8425C9.52357 12.8498 9.37732 12.8746 9.0325 12.9128C8.23825 13.0394 7.87263 12.509 7.78938 12.2277H7.78882Z" fill="url(#paint5_radial_542_435)"/>
<path d="M7.78882 12.2277L7.56494 11.4982L9.19957 10.7202L9.31375 11.353H9.45888C9.55057 11.8593 9.55563 12.5568 9.54663 12.8425C9.52357 12.8498 9.37732 12.8746 9.0325 12.9128C8.23825 13.0394 7.87263 12.509 7.78938 12.2277H7.78882Z" fill="url(#paint6_radial_542_435)"/>
<path d="M3.99648 9.47224L4.56798 9.22192L5.47361 10.8172L4.59442 11.081V11.3178L3.08692 11.4629C3.04642 11.239 2.97442 10.7592 3.14429 10.3295C3.33273 9.85192 3.79061 9.56336 3.99704 9.47224H3.99648Z" fill="black"/>
<path d="M3.99648 9.47224L4.56798 9.22192L5.47361 10.8172L4.59442 11.081V11.3178L3.08692 11.4629C3.04642 11.239 2.97442 10.7592 3.14429 10.3295C3.33273 9.85192 3.79061 9.56336 3.99704 9.47224H3.99648Z" fill="url(#paint7_radial_542_435)"/>
<path d="M3.99648 9.47224L4.56798 9.22192L5.47361 10.8172L4.59442 11.081V11.3178L3.08692 11.4629C3.04642 11.239 2.97442 10.7592 3.14429 10.3295C3.33273 9.85192 3.79061 9.56336 3.99704 9.47224H3.99648Z" fill="url(#paint8_radial_542_435)"/>
<path d="M3.99648 9.47224L4.56798 9.22192L5.47361 10.8172L4.59442 11.081V11.3178L3.08692 11.4629C3.04642 11.239 2.97442 10.7592 3.14429 10.3295C3.33273 9.85192 3.79061 9.56336 3.99704 9.47224H3.99648Z" fill="url(#paint9_linear_542_435)"/>
<g filter="url(#filter0_i_542_435)">
<path d="M7.56858 11.5354C7.56858 11.5354 7.30758 10.8436 7.20858 10.2563C7.10958 9.66906 8.52314 7.7605 8.52314 7.7605C9.05752 8.59862 9.25158 9.24269 9.44564 10.0172C9.56321 10.4858 9.5947 10.6247 9.33145 10.8829C8.97258 11.2024 7.93027 11.4353 7.56858 11.5354Z" fill="black"/>
<path d="M7.56858 11.5354C7.56858 11.5354 7.30758 10.8436 7.20858 10.2563C7.10958 9.66906 8.52314 7.7605 8.52314 7.7605C9.05752 8.59862 9.25158 9.24269 9.44564 10.0172C9.56321 10.4858 9.5947 10.6247 9.33145 10.8829C8.97258 11.2024 7.93027 11.4353 7.56858 11.5354Z" fill="black"/>
</g>
<path fill-rule="evenodd" clip-rule="evenodd" d="M1.65371 5.30977C1.75519 5.17152 1.90741 5.07922 2.07692 5.05317C2.24643 5.02711 2.41934 5.06944 2.55765 5.17083C3.22028 5.65683 4.47353 5.94821 5.72621 5.34858C5.80295 5.31117 5.88633 5.28932 5.97154 5.28429C6.05676 5.27925 6.14213 5.29114 6.22274 5.31925C6.30334 5.34737 6.37758 5.39116 6.44118 5.4481C6.50478 5.50504 6.55648 5.57401 6.5933 5.65103C6.63012 5.72804 6.65133 5.81159 6.65571 5.89684C6.66009 5.9821 6.64755 6.06737 6.61882 6.14776C6.59009 6.22814 6.54573 6.30205 6.4883 6.36521C6.43087 6.42837 6.36151 6.47954 6.28421 6.51577C4.57871 7.33139 2.80403 6.96802 1.70715 6.12033C1.41915 5.90939 1.44278 5.59721 1.65371 5.30977Z" fill="black"/>
<path fill-rule="evenodd" clip-rule="evenodd" d="M1.65371 5.30977C1.75519 5.17152 1.90741 5.07922 2.07692 5.05317C2.24643 5.02711 2.41934 5.06944 2.55765 5.17083C3.22028 5.65683 4.47353 5.94821 5.72621 5.34858C5.80295 5.31117 5.88633 5.28932 5.97154 5.28429C6.05676 5.27925 6.14213 5.29114 6.22274 5.31925C6.30334 5.34737 6.37758 5.39116 6.44118 5.4481C6.50478 5.50504 6.55648 5.57401 6.5933 5.65103C6.63012 5.72804 6.65133 5.81159 6.65571 5.89684C6.66009 5.9821 6.64755 6.06737 6.61882 6.14776C6.59009 6.22814 6.54573 6.30205 6.4883 6.36521C6.43087 6.42837 6.36151 6.47954 6.28421 6.51577C4.57871 7.33139 2.80403 6.96802 1.70715 6.12033C1.41915 5.90939 1.44278 5.59721 1.65371 5.30977Z" fill="url(#paint10_radial_542_435)"/>
<path fill-rule="evenodd" clip-rule="evenodd" d="M1.65371 5.30977C1.75519 5.17152 1.90741 5.07922 2.07692 5.05317C2.24643 5.02711 2.41934 5.06944 2.55765 5.17083C3.22028 5.65683 4.47353 5.94821 5.72621 5.34858C5.80295 5.31117 5.88633 5.28932 5.97154 5.28429C6.05676 5.27925 6.14213 5.29114 6.22274 5.31925C6.30334 5.34737 6.37758 5.39116 6.44118 5.4481C6.50478 5.50504 6.55648 5.57401 6.5933 5.65103C6.63012 5.72804 6.65133 5.81159 6.65571 5.89684C6.66009 5.9821 6.64755 6.06737 6.61882 6.14776C6.59009 6.22814 6.54573 6.30205 6.4883 6.36521C6.43087 6.42837 6.36151 6.47954 6.28421 6.51577C4.57871 7.33139 2.80403 6.96802 1.70715 6.12033C1.41915 5.90939 1.44278 5.59721 1.65371 5.30977Z" fill="url(#paint11_radial_542_435)"/>
<path fill-rule="evenodd" clip-rule="evenodd" d="M1.65371 5.30977C1.75519 5.17152 1.90741 5.07922 2.07692 5.05317C2.24643 5.02711 2.41934 5.06944 2.55765 5.17083C3.22028 5.65683 4.47353 5.94821 5.72621 5.34858C5.80295 5.31117 5.88633 5.28932 5.97154 5.28429C6.05676 5.27925 6.14213 5.29114 6.22274 5.31925C6.30334 5.34737 6.37758 5.39116 6.44118 5.4481C6.50478 5.50504 6.55648 5.57401 6.5933 5.65103C6.63012 5.72804 6.65133 5.81159 6.65571 5.89684C6.66009 5.9821 6.64755 6.06737 6.61882 6.14776C6.59009 6.22814 6.54573 6.30205 6.4883 6.36521C6.43087 6.42837 6.36151 6.47954 6.28421 6.51577C4.57871 7.33139 2.80403 6.96802 1.70715 6.12033C1.41915 5.90939 1.44278 5.59721 1.65371 5.30977Z" fill="url(#paint12_radial_542_435)"/>
<path d="M6.12109 3.24927L7.26637 2.7558L8.0009 4.46054L6.85562 4.95401L6.12109 3.24927Z" fill="black"/>
<path d="M6.974 4.02941L7.35312 3.93435C7.48419 3.90173 7.62087 3.8961 7.75419 3.91748L8.61537 5.15216C8.25369 6.09941 8.28069 6.85879 8.56025 7.5456L5.80569 8.71223C5.32419 7.07085 5.43106 5.67585 5.80569 5.02448C6.1415 4.39448 6.60725 4.13516 6.974 4.02941V4.02941Z" fill="black"/>
<path d="M6.974 4.02941L7.35312 3.93435C7.48419 3.90173 7.62087 3.8961 7.75419 3.91748L8.61537 5.15216C8.25369 6.09941 8.28069 6.85879 8.56025 7.5456L5.80569 8.71223C5.32419 7.07085 5.43106 5.67585 5.80569 5.02448C6.1415 4.39448 6.60725 4.13516 6.974 4.02941V4.02941Z" fill="url(#paint13_radial_542_435)"/>
<path d="M6.974 4.02941L7.35312 3.93435C7.48419 3.90173 7.62087 3.8961 7.75419 3.91748L8.61537 5.15216C8.25369 6.09941 8.28069 6.85879 8.56025 7.5456L5.80569 8.71223C5.32419 7.07085 5.43106 5.67585 5.80569 5.02448C6.1415 4.39448 6.60725 4.13516 6.974 4.02941V4.02941Z" fill="url(#paint14_radial_542_435)"/>
<path d="M6.974 4.02941L7.35312 3.93435C7.48419 3.90173 7.62087 3.8961 7.75419 3.91748L8.61537 5.15216C8.25369 6.09941 8.28069 6.85879 8.56025 7.5456L5.80569 8.71223C5.32419 7.07085 5.43106 5.67585 5.80569 5.02448C6.1415 4.39448 6.60725 4.13516 6.974 4.02941V4.02941Z" fill="url(#paint15_radial_542_435)"/>
<path d="M6.974 4.02941L7.35312 3.93435C7.48419 3.90173 7.62087 3.8961 7.75419 3.91748L8.61537 5.15216C8.25369 6.09941 8.28069 6.85879 8.56025 7.5456L5.80569 8.71223C5.32419 7.07085 5.43106 5.67585 5.80569 5.02448C6.1415 4.39448 6.60725 4.13516 6.974 4.02941V4.02941Z" fill="url(#paint16_radial_542_435)"/>
<path d="M6.974 4.02941L7.35312 3.93435C7.48419 3.90173 7.62087 3.8961 7.75419 3.91748L8.61537 5.15216C8.25369 6.09941 8.28069 6.85879 8.56025 7.5456L5.80569 8.71223C5.32419 7.07085 5.43106 5.67585 5.80569 5.02448C6.1415 4.39448 6.60725 4.13516 6.974 4.02941V4.02941Z" fill="url(#paint17_radial_542_435)"/>
<path d="M6.974 4.02941L7.35312 3.93435C7.48419 3.90173 7.62087 3.8961 7.75419 3.91748L8.61537 5.15216C8.25369 6.09941 8.28069 6.85879 8.56025 7.5456L5.80569 8.71223C5.32419 7.07085 5.43106 5.67585 5.80569 5.02448C6.1415 4.39448 6.60725 4.13516 6.974 4.02941V4.02941Z" fill="url(#paint18_radial_542_435)"/>
<path d="M2.42308 14.8559L3.66902 14.2529L4.55439 14.6759L4.54651 15.4297C4.54578 15.4667 4.53062 15.5021 4.50425 15.5281C4.47789 15.5542 4.44239 15.5689 4.40533 15.5692L2.23689 15.5821C2.11258 15.5827 2.00177 15.4977 2.0147 15.374C2.04058 15.1197 2.20202 14.96 2.42308 14.8559Z" fill="black"/>
<path d="M2.42308 14.8559L3.66902 14.2529L4.55439 14.6759L4.54651 15.4297C4.54578 15.4667 4.53062 15.5021 4.50425 15.5281C4.47789 15.5542 4.44239 15.5689 4.40533 15.5692L2.23689 15.5821C2.11258 15.5827 2.00177 15.4977 2.0147 15.374C2.04058 15.1197 2.20202 14.96 2.42308 14.8559Z" fill="black"/>
<path d="M2.42308 14.8559L3.66902 14.2529L4.55439 14.6759L4.54651 15.4297C4.54578 15.4667 4.53062 15.5021 4.50425 15.5281C4.47789 15.5542 4.44239 15.5689 4.40533 15.5692L2.23689 15.5821C2.11258 15.5827 2.00177 15.4977 2.0147 15.374C2.04058 15.1197 2.20202 14.96 2.42308 14.8559Z" fill="black"/>
<path d="M2.42308 14.8559L3.66902 14.2529L4.55439 14.6759L4.54651 15.4297C4.54578 15.4667 4.53062 15.5021 4.50425 15.5281C4.47789 15.5542 4.44239 15.5689 4.40533 15.5692L2.23689 15.5821C2.11258 15.5827 2.00177 15.4977 2.0147 15.374C2.04058 15.1197 2.20202 14.96 2.42308 14.8559Z" fill="url(#paint19_radial_542_435)"/>
<path d="M12.8543 11.1359L12.1265 11.4498L12.1462 12.4117C12.3318 12.5748 12.7672 13.0113 13.1632 13.3128C13.4219 13.5097 13.666 13.513 13.8337 13.4793C13.9608 13.4534 13.9951 13.31 13.9394 13.1924L13.0428 11.2023C13.0348 11.1855 13.0236 11.1704 13.0098 11.158C12.996 11.1456 12.9799 11.136 12.9624 11.1298C12.9449 11.1236 12.9263 11.121 12.9078 11.122C12.8892 11.1231 12.8711 11.1278 12.8543 11.1359Z" fill="black"/>
<path d="M12.8543 11.1359L12.1265 11.4498L12.1462 12.4117C12.3318 12.5748 12.7672 13.0113 13.1632 13.3128C13.4219 13.5097 13.666 13.513 13.8337 13.4793C13.9608 13.4534 13.9951 13.31 13.9394 13.1924L13.0428 11.2023C13.0348 11.1855 13.0236 11.1704 13.0098 11.158C12.996 11.1456 12.9799 11.136 12.9624 11.1298C12.9449 11.1236 12.9263 11.121 12.9078 11.122C12.8892 11.1231 12.8711 11.1278 12.8543 11.1359Z" fill="black"/>
<path d="M12.8543 11.1359L12.1265 11.4498L12.1462 12.4117C12.3318 12.5748 12.7672 13.0113 13.1632 13.3128C13.4219 13.5097 13.666 13.513 13.8337 13.4793C13.9608 13.4534 13.9951 13.31 13.9394 13.1924L13.0428 11.2023C13.0348 11.1855 13.0236 11.1704 13.0098 11.158C12.996 11.1456 12.9799 11.136 12.9624 11.1298C12.9449 11.1236 12.9263 11.121 12.9078 11.122C12.8892 11.1231 12.8711 11.1278 12.8543 11.1359Z" fill="black"/>
<path d="M12.8543 11.1359L12.1265 11.4498L12.1462 12.4117C12.3318 12.5748 12.7672 13.0113 13.1632 13.3128C13.4219 13.5097 13.666 13.513 13.8337 13.4793C13.9608 13.4534 13.9951 13.31 13.9394 13.1924L13.0428 11.2023C13.0348 11.1855 13.0236 11.1704 13.0098 11.158C12.996 11.1456 12.9799 11.136 12.9624 11.1298C12.9449 11.1236 12.9263 11.121 12.9078 11.122C12.8892 11.1231 12.8711 11.1278 12.8543 11.1359Z" fill="black"/>
<path d="M8.55277 7.52417C8.55277 7.52417 5.94727 8.5288 4.52246 9.23755C4.79106 9.90431 5.1313 10.5399 5.53721 11.1332C5.61055 11.2378 5.72002 11.3117 5.84454 11.3404C5.96907 11.3692 6.09983 11.3509 6.21165 11.289C6.82196 10.9678 7.3614 10.7096 8.00152 10.3187C9.14902 9.61836 9.00502 8.87473 8.93696 8.48267C8.8779 8.14236 8.66077 7.73848 8.55277 7.52417Z" fill="black"/>
<path d="M8.55277 7.52417C8.55277 7.52417 5.94727 8.5288 4.52246 9.23755C4.79106 9.90431 5.1313 10.5399 5.53721 11.1332C5.61055 11.2378 5.72002 11.3117 5.84454 11.3404C5.96907 11.3692 6.09983 11.3509 6.21165 11.289C6.82196 10.9678 7.3614 10.7096 8.00152 10.3187C9.14902 9.61836 9.00502 8.87473 8.93696 8.48267C8.8779 8.14236 8.66077 7.73848 8.55277 7.52417Z" fill="black"/>
<path d="M8.55277 7.52417C8.55277 7.52417 5.94727 8.5288 4.52246 9.23755C4.79106 9.90431 5.1313 10.5399 5.53721 11.1332C5.61055 11.2378 5.72002 11.3117 5.84454 11.3404C5.96907 11.3692 6.09983 11.3509 6.21165 11.289C6.82196 10.9678 7.3614 10.7096 8.00152 10.3187C9.14902 9.61836 9.00502 8.87473 8.93696 8.48267C8.8779 8.14236 8.66077 7.73848 8.55277 7.52417Z" fill="url(#paint20_radial_542_435)"/>
<path d="M8.55277 7.52417C8.55277 7.52417 5.94727 8.5288 4.52246 9.23755C4.79106 9.90431 5.1313 10.5399 5.53721 11.1332C5.61055 11.2378 5.72002 11.3117 5.84454 11.3404C5.96907 11.3692 6.09983 11.3509 6.21165 11.289C6.82196 10.9678 7.3614 10.7096 8.00152 10.3187C9.14902 9.61836 9.00502 8.87473 8.93696 8.48267C8.8779 8.14236 8.66077 7.73848 8.55277 7.52417Z" fill="black"/>
<path d="M8.55277 7.52417C8.55277 7.52417 5.94727 8.5288 4.52246 9.23755C4.79106 9.90431 5.1313 10.5399 5.53721 11.1332C5.61055 11.2378 5.72002 11.3117 5.84454 11.3404C5.96907 11.3692 6.09983 11.3509 6.21165 11.289C6.82196 10.9678 7.3614 10.7096 8.00152 10.3187C9.14902 9.61836 9.00502 8.87473 8.93696 8.48267C8.8779 8.14236 8.66077 7.73848 8.55277 7.52417Z" fill="black"/>
<path d="M8.55277 7.52417C8.55277 7.52417 5.94727 8.5288 4.52246 9.23755C4.79106 9.90431 5.1313 10.5399 5.53721 11.1332C5.61055 11.2378 5.72002 11.3117 5.84454 11.3404C5.96907 11.3692 6.09983 11.3509 6.21165 11.289C6.82196 10.9678 7.3614 10.7096 8.00152 10.3187C9.14902 9.61836 9.00502 8.87473 8.93696 8.48267C8.8779 8.14236 8.66077 7.73848 8.55277 7.52417Z" fill="black"/>
<g filter="url(#filter1_ii_542_435)">
<path fill-rule="evenodd" clip-rule="evenodd" d="M11.9367 0.695365C12.281 0.79099 12.4823 1.14705 12.3867 1.4913L11.9316 3.13155C11.8155 3.55037 11.5847 3.92845 11.2653 4.22321C10.9459 4.51797 10.5506 4.71771 10.1238 4.79993L7.74327 5.25836C7.57469 5.29081 7.40013 5.25496 7.25798 5.1587C7.11584 5.06245 7.01775 4.91366 6.9853 4.74508C6.95286 4.57651 6.9887 4.40194 7.08496 4.2598C7.18122 4.11765 7.33001 4.01956 7.49858 3.98711L9.87908 3.52924C10.0693 3.49262 10.2456 3.40361 10.388 3.27223C10.5304 3.14085 10.6333 2.97232 10.6851 2.78561L11.1408 1.14536C11.1867 0.980194 11.2964 0.840021 11.4456 0.755643C11.5949 0.671265 11.7715 0.649585 11.9367 0.695365V0.695365Z" fill="black"/>
</g>
<path fill-rule="evenodd" clip-rule="evenodd" d="M11.9367 0.695365C12.281 0.79099 12.4823 1.14705 12.3867 1.4913L11.9316 3.13155C11.8155 3.55037 11.5847 3.92845 11.2653 4.22321C10.9459 4.51797 10.5506 4.71771 10.1238 4.79993L7.74327 5.25836C7.57469 5.29081 7.40013 5.25496 7.25798 5.1587C7.11584 5.06245 7.01775 4.91366 6.9853 4.74508C6.95286 4.57651 6.9887 4.40194 7.08496 4.2598C7.18122 4.11765 7.33001 4.01956 7.49858 3.98711L9.87908 3.52924C10.0693 3.49262 10.2456 3.40361 10.388 3.27223C10.5304 3.14085 10.6333 2.97232 10.6851 2.78561L11.1408 1.14536C11.1867 0.980194 11.2964 0.840021 11.4456 0.755643C11.5949 0.671265 11.7715 0.649585 11.9367 0.695365V0.695365Z" fill="url(#paint21_linear_542_435)"/>
<path fill-rule="evenodd" clip-rule="evenodd" d="M11.9367 0.695365C12.281 0.79099 12.4823 1.14705 12.3867 1.4913L11.9316 3.13155C11.8155 3.55037 11.5847 3.92845 11.2653 4.22321C10.9459 4.51797 10.5506 4.71771 10.1238 4.79993L7.74327 5.25836C7.57469 5.29081 7.40013 5.25496 7.25798 5.1587C7.11584 5.06245 7.01775 4.91366 6.9853 4.74508C6.95286 4.57651 6.9887 4.40194 7.08496 4.2598C7.18122 4.11765 7.33001 4.01956 7.49858 3.98711L9.87908 3.52924C10.0693 3.49262 10.2456 3.40361 10.388 3.27223C10.5304 3.14085 10.6333 2.97232 10.6851 2.78561L11.1408 1.14536C11.1867 0.980194 11.2964 0.840021 11.4456 0.755643C11.5949 0.671265 11.7715 0.649585 11.9367 0.695365V0.695365Z" fill="url(#paint22_radial_542_435)"/>
<path d="M9.35829 5.26517L9.01517 3.59961L7.32486 3.93486C7.11101 3.9795 6.9232 4.10625 6.8018 4.28787C6.6804 4.46949 6.63509 4.69149 6.67561 4.90616C6.71613 5.12083 6.83924 5.31104 7.01849 5.43591C7.19774 5.56079 7.41882 5.61036 7.63423 5.57398L9.35829 5.26517V5.26517Z" fill="black"/>
<path d="M9.35829 5.26517L9.01517 3.59961L7.32486 3.93486C7.11101 3.9795 6.9232 4.10625 6.8018 4.28787C6.6804 4.46949 6.63509 4.69149 6.67561 4.90616C6.71613 5.12083 6.83924 5.31104 7.01849 5.43591C7.19774 5.56079 7.41882 5.61036 7.63423 5.57398L9.35829 5.26517V5.26517Z" fill="black"/>
<path d="M9.35829 5.26517L9.01517 3.59961L7.32486 3.93486C7.11101 3.9795 6.9232 4.10625 6.8018 4.28787C6.6804 4.46949 6.63509 4.69149 6.67561 4.90616C6.71613 5.12083 6.83924 5.31104 7.01849 5.43591C7.19774 5.56079 7.41882 5.61036 7.63423 5.57398L9.35829 5.26517V5.26517Z" fill="black"/>
<path d="M9.35829 5.26517L9.01517 3.59961L7.32486 3.93486C7.11101 3.9795 6.9232 4.10625 6.8018 4.28787C6.6804 4.46949 6.63509 4.69149 6.67561 4.90616C6.71613 5.12083 6.83924 5.31104 7.01849 5.43591C7.19774 5.56079 7.41882 5.61036 7.63423 5.57398L9.35829 5.26517V5.26517Z" fill="url(#paint23_radial_542_435)"/>
<path d="M12.1698 2.14076L11.0177 1.80582C10.958 1.78847 10.8956 1.82278 10.8783 1.88244L10.7272 2.40205C10.7099 2.46172 10.7442 2.52414 10.8038 2.54149L11.9559 2.87643C12.0156 2.89377 12.078 2.85946 12.0954 2.7998L12.2464 2.28019C12.2638 2.22053 12.2295 2.1581 12.1698 2.14076Z" fill="black"/>
<path d="M0.859863 5.24262C0.859863 5.21011 0.866265 5.17793 0.878703 5.1479C0.891141 5.11787 0.909372 5.09059 0.932354 5.06761C0.955337 5.04463 0.982621 5.0264 1.01265 5.01396C1.04268 5.00152 1.07486 4.99512 1.10736 4.99512H1.88024C1.94324 4.99512 2.18399 4.99962 2.38593 5.0778L2.4478 5.26905L2.22055 5.49012H1.10736C1.07486 5.49012 1.04268 5.48372 1.01265 5.47128C0.982621 5.45884 0.955337 5.44061 0.932354 5.41763C0.909372 5.39464 0.891141 5.36736 0.878703 5.33733C0.866265 5.3073 0.859863 5.27512 0.859863 5.24262V5.24262Z" fill="black"/>
<path d="M0.538234 5.49018C0.538234 5.45767 0.544636 5.42549 0.557074 5.39546C0.569512 5.36543 0.587743 5.33815 0.610725 5.31517C0.633708 5.29218 0.660992 5.27395 0.69102 5.26152C0.721048 5.24908 0.753232 5.24268 0.785734 5.24268H1.89836V5.73768H0.784609C0.752107 5.73768 0.719923 5.73127 0.689895 5.71884C0.659867 5.7064 0.632583 5.68817 0.6096 5.66518C0.586618 5.6422 0.568387 5.61492 0.555949 5.58489C0.543511 5.55486 0.537109 5.52268 0.537109 5.49018H0.538234Z" fill="black"/>
<path d="M0.538234 5.49018C0.538234 5.45767 0.544636 5.42549 0.557074 5.39546C0.569512 5.36543 0.587743 5.33815 0.610725 5.31517C0.633708 5.29218 0.660992 5.27395 0.69102 5.26152C0.721048 5.24908 0.753232 5.24268 0.785734 5.24268H1.89836V5.73768H0.784609C0.752107 5.73768 0.719923 5.73127 0.689895 5.71884C0.659867 5.7064 0.632583 5.68817 0.6096 5.66518C0.586618 5.6422 0.568387 5.61492 0.555949 5.58489C0.543511 5.55486 0.537109 5.52268 0.537109 5.49018H0.538234Z" fill="url(#paint24_linear_542_435)"/>
<path d="M0.787598 5.81806C0.787598 5.78555 0.793999 5.75337 0.806437 5.72334C0.818876 5.69331 0.837106 5.66603 0.860089 5.64305C0.883071 5.62007 0.910355 5.60183 0.940384 5.5894C0.970412 5.57696 1.0026 5.57056 1.0351 5.57056H1.89854V5.84056C1.89854 5.90023 1.87483 5.95746 1.83263 5.99966C1.79044 6.04185 1.73321 6.06556 1.67354 6.06556H1.0351C0.969457 6.06556 0.906504 6.03948 0.860089 5.99307C0.813673 5.94665 0.787598 5.8837 0.787598 5.81806V5.81806Z" fill="black"/>
<path d="M0.787598 5.81806C0.787598 5.78555 0.793999 5.75337 0.806437 5.72334C0.818876 5.69331 0.837106 5.66603 0.860089 5.64305C0.883071 5.62007 0.910355 5.60183 0.940384 5.5894C0.970412 5.57696 1.0026 5.57056 1.0351 5.57056H1.89854V5.84056C1.89854 5.90023 1.87483 5.95746 1.83263 5.99966C1.79044 6.04185 1.73321 6.06556 1.67354 6.06556H1.0351C0.969457 6.06556 0.906504 6.03948 0.860089 5.99307C0.813673 5.94665 0.787598 5.8837 0.787598 5.81806V5.81806Z" fill="url(#paint25_linear_542_435)"/>
<path d="M2.662 5.25948C2.67495 5.23391 2.6973 5.21435 2.72436 5.20491C2.75142 5.19547 2.78108 5.19689 2.80713 5.20885C2.94438 5.27185 3.1975 5.39166 3.355 5.48785C3.40225 5.5171 3.41519 5.57785 3.38875 5.62623L2.8105 6.69891C2.79897 6.72084 2.78003 6.73795 2.75706 6.74722C2.73409 6.75649 2.70858 6.75732 2.68506 6.74954C2.49063 6.68231 2.3063 6.58882 2.13719 6.47166C2.11578 6.45644 2.10066 6.43393 2.09466 6.40835C2.08865 6.38278 2.09217 6.35589 2.10456 6.33273L2.662 5.25948V5.25948Z" fill="black"/>
<path d="M12.0701 1.06165C12.0735 1.21615 12.046 1.36978 11.9892 1.51351C11.9325 1.65725 11.8476 1.78819 11.7395 1.89867C11.6314 2.00914 11.5024 2.09691 11.3599 2.15684C11.2175 2.21676 11.0645 2.24763 10.9099 2.24763C10.7554 2.24763 10.6024 2.21676 10.46 2.15684C10.3175 2.09691 10.1885 2.00914 10.0804 1.89867C9.97235 1.78819 9.88743 1.65725 9.83066 1.51351C9.77388 1.36978 9.74639 1.21615 9.74979 1.06165C9.75647 0.758379 9.88163 0.46978 10.0985 0.257659C10.3153 0.0455373 10.6066 -0.0732422 10.9099 -0.0732422C11.2133 -0.0732422 11.5046 0.0455373 11.7214 0.257659C11.9383 0.46978 12.0634 0.758379 12.0701 1.06165V1.06165Z" fill="black"/>
<path d="M12.0701 1.06165C12.0735 1.21615 12.046 1.36978 11.9892 1.51351C11.9325 1.65725 11.8476 1.78819 11.7395 1.89867C11.6314 2.00914 11.5024 2.09691 11.3599 2.15684C11.2175 2.21676 11.0645 2.24763 10.9099 2.24763C10.7554 2.24763 10.6024 2.21676 10.46 2.15684C10.3175 2.09691 10.1885 2.00914 10.0804 1.89867C9.97235 1.78819 9.88743 1.65725 9.83066 1.51351C9.77388 1.36978 9.74639 1.21615 9.74979 1.06165C9.75647 0.758379 9.88163 0.46978 10.0985 0.257659C10.3153 0.0455373 10.6066 -0.0732422 10.9099 -0.0732422C11.2133 -0.0732422 11.5046 0.0455373 11.7214 0.257659C11.9383 0.46978 12.0634 0.758379 12.0701 1.06165V1.06165Z" fill="black"/>
<path d="M12.0701 1.06165C12.0735 1.21615 12.046 1.36978 11.9892 1.51351C11.9325 1.65725 11.8476 1.78819 11.7395 1.89867C11.6314 2.00914 11.5024 2.09691 11.3599 2.15684C11.2175 2.21676 11.0645 2.24763 10.9099 2.24763C10.7554 2.24763 10.6024 2.21676 10.46 2.15684C10.3175 2.09691 10.1885 2.00914 10.0804 1.89867C9.97235 1.78819 9.88743 1.65725 9.83066 1.51351C9.77388 1.36978 9.74639 1.21615 9.74979 1.06165C9.75647 0.758379 9.88163 0.46978 10.0985 0.257659C10.3153 0.0455373 10.6066 -0.0732422 10.9099 -0.0732422C11.2133 -0.0732422 11.5046 0.0455373 11.7214 0.257659C11.9383 0.46978 12.0634 0.758379 12.0701 1.06165V1.06165Z" fill="url(#paint26_radial_542_435)"/>
<path d="M12.0701 1.06165C12.0735 1.21615 12.046 1.36978 11.9892 1.51351C11.9325 1.65725 11.8476 1.78819 11.7395 1.89867C11.6314 2.00914 11.5024 2.09691 11.3599 2.15684C11.2175 2.21676 11.0645 2.24763 10.9099 2.24763C10.7554 2.24763 10.6024 2.21676 10.46 2.15684C10.3175 2.09691 10.1885 2.00914 10.0804 1.89867C9.97235 1.78819 9.88743 1.65725 9.83066 1.51351C9.77388 1.36978 9.74639 1.21615 9.74979 1.06165C9.75647 0.758379 9.88163 0.46978 10.0985 0.257659C10.3153 0.0455373 10.6066 -0.0732422 10.9099 -0.0732422C11.2133 -0.0732422 11.5046 0.0455373 11.7214 0.257659C11.9383 0.46978 12.0634 0.758379 12.0701 1.06165V1.06165Z" fill="url(#paint27_radial_542_435)"/>
<path d="M12.0701 1.06165C12.0735 1.21615 12.046 1.36978 11.9892 1.51351C11.9325 1.65725 11.8476 1.78819 11.7395 1.89867C11.6314 2.00914 11.5024 2.09691 11.3599 2.15684C11.2175 2.21676 11.0645 2.24763 10.9099 2.24763C10.7554 2.24763 10.6024 2.21676 10.46 2.15684C10.3175 2.09691 10.1885 2.00914 10.0804 1.89867C9.97235 1.78819 9.88743 1.65725 9.83066 1.51351C9.77388 1.36978 9.74639 1.21615 9.74979 1.06165C9.75647 0.758379 9.88163 0.46978 10.0985 0.257659C10.3153 0.0455373 10.6066 -0.0732422 10.9099 -0.0732422C11.2133 -0.0732422 11.5046 0.0455373 11.7214 0.257659C11.9383 0.46978 12.0634 0.758379 12.0701 1.06165V1.06165Z" fill="black"/>
<g filter="url(#filter2_f_542_435)">
<path d="M1.76349 5.64502H1.0508C1.02005 5.64502 0.995117 5.66995 0.995117 5.70071V5.70127C0.995117 5.73203 1.02005 5.75696 1.0508 5.75696H1.76349C1.79425 5.75696 1.81918 5.73203 1.81918 5.70127V5.70071C1.81918 5.66995 1.79425 5.64502 1.76349 5.64502Z" fill="black"/>
</g>
<path d="M4.92191 2.42284C5.01641 2.33453 5.06479 2.20234 5.07772 2.14722H5.18572V2.82559C5.05635 2.90828 4.87072 2.89534 4.81616 2.77159C4.76891 2.66528 4.80435 2.53365 4.92191 2.42284Z" fill="black"/>
<path d="M4.92191 2.42284C5.01641 2.33453 5.06479 2.20234 5.07772 2.14722H5.18572V2.82559C5.05635 2.90828 4.87072 2.89534 4.81616 2.77159C4.76891 2.66528 4.80435 2.53365 4.92191 2.42284Z" fill="url(#paint28_radial_542_435)"/>
<g filter="url(#filter3_i_542_435)">
<path d="M5.05656 1.84174C5.07963 1.35855 5.23656 1.12568 5.30969 1.05762H7.56025L7.59794 2.96505C7.07594 4.24474 5.48069 4.2993 5.24275 3.83693C5.00481 3.37399 5.02956 2.40087 5.05713 1.84174H5.05656Z" fill="black"/>
<path d="M5.05656 1.84174C5.07963 1.35855 5.23656 1.12568 5.30969 1.05762H7.56025L7.59794 2.96505C7.07594 4.24474 5.48069 4.2993 5.24275 3.83693C5.00481 3.37399 5.02956 2.40087 5.05713 1.84174H5.05656Z" fill="url(#paint29_radial_542_435)"/>
<path d="M5.05656 1.84174C5.07963 1.35855 5.23656 1.12568 5.30969 1.05762H7.56025L7.59794 2.96505C7.07594 4.24474 5.48069 4.2993 5.24275 3.83693C5.00481 3.37399 5.02956 2.40087 5.05713 1.84174H5.05656Z" fill="url(#paint30_radial_542_435)"/>
<path d="M5.05656 1.84174C5.07963 1.35855 5.23656 1.12568 5.30969 1.05762H7.56025L7.59794 2.96505C7.07594 4.24474 5.48069 4.2993 5.24275 3.83693C5.00481 3.37399 5.02956 2.40087 5.05713 1.84174H5.05656Z" fill="url(#paint31_radial_542_435)"/>
</g>
<g filter="url(#filter4_i_542_435)">
<path d="M5.14778 0.423317C5.20098 0.312907 5.28581 0.220804 5.39147 0.158707C5.49713 0.0966107 5.61887 0.0673238 5.74122 0.0745672C6.25928 0.102692 6.33015 0.282692 6.79872 0.18538C7.29372 0.0835672 7.5384 0.112817 7.75047 0.209005L7.7544 0.211255C7.96365 0.305755 8.39565 0.50263 8.39565 1.38688C8.39565 2.20194 8.1054 2.63225 7.96478 2.78582L7.99234 2.79594C8.13184 2.84657 8.18922 2.9945 8.13859 3.13457C8.09584 3.25325 7.94509 3.32188 7.75497 3.29207C7.53784 3.25832 7.37809 3.2285 7.25378 3.20375C7.21973 3.19697 7.18911 3.17856 7.16715 3.15167C7.14519 3.12478 7.13326 3.0911 7.1334 3.05638V2.38532C7.1334 2.10294 6.93372 1.93419 6.84597 1.88357C6.8364 1.59163 6.74697 1.45775 6.60128 1.38688C6.35941 1.26988 6.28403 1.32782 5.70578 1.29238C5.12416 1.2575 4.9689 0.791192 5.14778 0.423317V0.423317Z" fill="url(#paint32_radial_542_435)"/>
<path d="M5.14778 0.423317C5.20098 0.312907 5.28581 0.220804 5.39147 0.158707C5.49713 0.0966107 5.61887 0.0673238 5.74122 0.0745672C6.25928 0.102692 6.33015 0.282692 6.79872 0.18538C7.29372 0.0835672 7.5384 0.112817 7.75047 0.209005L7.7544 0.211255C7.96365 0.305755 8.39565 0.50263 8.39565 1.38688C8.39565 2.20194 8.1054 2.63225 7.96478 2.78582L7.99234 2.79594C8.13184 2.84657 8.18922 2.9945 8.13859 3.13457C8.09584 3.25325 7.94509 3.32188 7.75497 3.29207C7.53784 3.25832 7.37809 3.2285 7.25378 3.20375C7.21973 3.19697 7.18911 3.17856 7.16715 3.15167C7.14519 3.12478 7.13326 3.0911 7.1334 3.05638V2.38532C7.1334 2.10294 6.93372 1.93419 6.84597 1.88357C6.8364 1.59163 6.74697 1.45775 6.60128 1.38688C6.35941 1.26988 6.28403 1.32782 5.70578 1.29238C5.12416 1.2575 4.9689 0.791192 5.14778 0.423317V0.423317Z" fill="black"/>
<path d="M5.14778 0.423317C5.20098 0.312907 5.28581 0.220804 5.39147 0.158707C5.49713 0.0966107 5.61887 0.0673238 5.74122 0.0745672C6.25928 0.102692 6.33015 0.282692 6.79872 0.18538C7.29372 0.0835672 7.5384 0.112817 7.75047 0.209005L7.7544 0.211255C7.96365 0.305755 8.39565 0.50263 8.39565 1.38688C8.39565 2.20194 8.1054 2.63225 7.96478 2.78582L7.99234 2.79594C8.13184 2.84657 8.18922 2.9945 8.13859 3.13457C8.09584 3.25325 7.94509 3.32188 7.75497 3.29207C7.53784 3.25832 7.37809 3.2285 7.25378 3.20375C7.21973 3.19697 7.18911 3.17856 7.16715 3.15167C7.14519 3.12478 7.13326 3.0911 7.1334 3.05638V2.38532C7.1334 2.10294 6.93372 1.93419 6.84597 1.88357C6.8364 1.59163 6.74697 1.45775 6.60128 1.38688C6.35941 1.26988 6.28403 1.32782 5.70578 1.29238C5.12416 1.2575 4.9689 0.791192 5.14778 0.423317V0.423317Z" fill="black"/>
<path d="M5.14778 0.423317C5.20098 0.312907 5.28581 0.220804 5.39147 0.158707C5.49713 0.0966107 5.61887 0.0673238 5.74122 0.0745672C6.25928 0.102692 6.33015 0.282692 6.79872 0.18538C7.29372 0.0835672 7.5384 0.112817 7.75047 0.209005L7.7544 0.211255C7.96365 0.305755 8.39565 0.50263 8.39565 1.38688C8.39565 2.20194 8.1054 2.63225 7.96478 2.78582L7.99234 2.79594C8.13184 2.84657 8.18922 2.9945 8.13859 3.13457C8.09584 3.25325 7.94509 3.32188 7.75497 3.29207C7.53784 3.25832 7.37809 3.2285 7.25378 3.20375C7.21973 3.19697 7.18911 3.17856 7.16715 3.15167C7.14519 3.12478 7.13326 3.0911 7.1334 3.05638V2.38532C7.1334 2.10294 6.93372 1.93419 6.84597 1.88357C6.8364 1.59163 6.74697 1.45775 6.60128 1.38688C6.35941 1.26988 6.28403 1.32782 5.70578 1.29238C5.12416 1.2575 4.9689 0.791192 5.14778 0.423317V0.423317Z" fill="url(#paint33_radial_542_435)"/>
</g>
<path d="M6.72754 2.71821L6.84791 1.85083C6.96144 1.86857 7.06346 1.9302 7.13199 2.02244C7.20052 2.11468 7.23008 2.23014 7.21429 2.34396C7.1985 2.45778 7.13864 2.56084 7.0476 2.63095C6.95655 2.70105 6.84161 2.73259 6.72754 2.71877V2.71821Z" fill="black"/>
<path d="M6.72754 2.71821L6.84791 1.85083C6.96144 1.86857 7.06346 1.9302 7.13199 2.02244C7.20052 2.11468 7.23008 2.23014 7.21429 2.34396C7.1985 2.45778 7.13864 2.56084 7.0476 2.63095C6.95655 2.70105 6.84161 2.73259 6.72754 2.71877V2.71821Z" fill="url(#paint34_radial_542_435)"/>
<path d="M6.72754 2.71821L6.84791 1.85083C6.96144 1.86857 7.06346 1.9302 7.13199 2.02244C7.20052 2.11468 7.23008 2.23014 7.21429 2.34396C7.1985 2.45778 7.13864 2.56084 7.0476 2.63095C6.95655 2.70105 6.84161 2.73259 6.72754 2.71877V2.71821Z" fill="url(#paint35_linear_542_435)"/>
<path fill-rule="evenodd" clip-rule="evenodd" d="M5.81163 2.99227C5.8186 2.99935 5.8241 3.00773 5.82781 3.01694C5.83153 3.02615 5.83339 3.03601 5.83328 3.04594C5.83318 3.05587 5.83111 3.06568 5.8272 3.07481C5.82329 3.08394 5.81762 3.09221 5.8105 3.09914C5.66707 3.23977 5.4595 3.27577 5.39313 3.28252C5.38327 3.28351 5.37331 3.28256 5.36381 3.27971C5.35432 3.27685 5.34548 3.27216 5.33781 3.26589C5.33013 3.25962 5.32376 3.25191 5.31906 3.24318C5.31437 3.23445 5.31144 3.22488 5.31044 3.21502C5.30944 3.20516 5.3104 3.19519 5.31325 3.1857C5.3161 3.17621 5.3208 3.16737 5.32707 3.15969C5.33333 3.15202 5.34105 3.14565 5.34978 3.14095C5.35851 3.13626 5.36808 3.13333 5.37794 3.13233C5.43419 3.1267 5.599 3.0952 5.70532 2.99114C5.71239 2.98417 5.72078 2.97867 5.72999 2.97496C5.7392 2.97124 5.74906 2.96938 5.75899 2.96949C5.76892 2.96959 5.77873 2.97166 5.78786 2.97557C5.79699 2.97948 5.80526 2.98515 5.81219 2.99227H5.81163Z" fill="black"/>
<g filter="url(#filter5_i_542_435)">
<path fill-rule="evenodd" clip-rule="evenodd" d="M5.67114 1.69794C5.62831 1.6886 5.58437 1.68538 5.54064 1.68838C5.51684 1.69136 5.49284 1.68477 5.4739 1.67005C5.45497 1.65534 5.44265 1.6337 5.43967 1.60991C5.43668 1.58611 5.44328 1.56211 5.45799 1.54317C5.47271 1.52424 5.49434 1.51192 5.51814 1.50894C5.56089 1.50331 5.63064 1.50556 5.70714 1.52019C5.78364 1.53594 5.8742 1.56688 5.95295 1.62481C5.97227 1.63906 5.98514 1.6604 5.98872 1.68413C5.99231 1.70787 5.98632 1.73206 5.97207 1.75138C5.95783 1.77069 5.93649 1.78356 5.91275 1.78715C5.88902 1.79074 5.86483 1.78475 5.84551 1.7705C5.79331 1.734 5.73382 1.70925 5.67114 1.69794V1.69794Z" fill="black"/>
</g>
<path d="M5.3623 2.32057H5.95855C5.95855 2.08432 5.82468 1.89307 5.66043 1.89307C5.49562 1.89307 5.3623 2.08432 5.3623 2.32057V2.32057Z" fill="white"/>
<path d="M5.72747 2.32056V2.31887C5.72747 2.12537 5.64479 1.96899 5.54241 1.96899C5.4406 1.96899 5.35791 2.12537 5.35791 2.31887V2.32112H5.72747V2.32056Z" fill="black"/>
<path d="M5.60915 2.32052C5.61092 2.30615 5.61186 2.29169 5.61196 2.27721C5.61196 2.16471 5.56415 2.07471 5.50621 2.07471C5.44715 2.07471 5.3999 2.16471 5.3999 2.27721C5.3999 2.29183 5.40103 2.30646 5.40215 2.32052H5.60915Z" fill="black"/>
<path d="M5.44535 2.1565C5.46484 2.16542 5.4905 2.15114 5.50266 2.12459C5.51482 2.09804 5.50888 2.06928 5.48939 2.06035C5.4699 2.05143 5.44424 2.06571 5.43208 2.09226C5.41992 2.11881 5.42586 2.14757 5.44535 2.1565Z" fill="url(#paint36_linear_542_435)"/>
<g filter="url(#filter6_f_542_435)">
<path d="M7.31577 1.25559C7.40971 1.63865 7.46483 2.00597 7.48283 2.17247C7.86308 1.82428 8.00708 1.39622 8.04252 1.04409C8.0729 0.743717 7.69546 0.587904 7.44008 0.748779C7.25558 0.864654 7.26402 1.04353 7.31577 1.25559Z" fill="black"/>
</g>
<defs>
<filter id="filter0_i_542_435" x="7.20361" y="7.6605" width="2.32959" height="3.8749" filterUnits="userSpaceOnUse" color-interpolation-filters="sRGB">
<feFlood flood-opacity="0" result="BackgroundImageFix"/>
<feBlend mode="normal" in="SourceGraphic" in2="BackgroundImageFix" result="shape"/>
<feColorMatrix in="SourceAlpha" type="matrix" values="0 0 0 0 0 0 0 0 0 0 0 0 0 0 0 0 0 0 127 0" result="hardAlpha"/>
<feOffset dy="-0.1"/>
<feGaussianBlur stdDeviation="0.25"/>
<feComposite in2="hardAlpha" operator="arithmetic" k2="-1" k3="1"/>
<feColorMatrix type="matrix" values="0 0 0 0 0.513726 0 0 0 0 0.458824 0 0 0 0 0.482353 0 0 0 1 0"/>
<feBlend mode="normal" in2="shape" result="effect1_innerShadow_542_435"/>
</filter>
<filter id="filter1_ii_542_435" x="6.97363" y="0.171875" width="5.68701" height="5.19814" filterUnits="userSpaceOnUse" color-interpolation-filters="sRGB">
<feFlood flood-opacity="0" result="BackgroundImageFix"/>
<feBlend mode="normal" in="SourceGraphic" in2="BackgroundImageFix" result="shape"/>
<feColorMatrix in="SourceAlpha" type="matrix" values="0 0 0 0 0 0 0 0 0 0 0 0 0 0 0 0 0 0 127 0" result="hardAlpha"/>
<feOffset dx="0.25" dy="-0.5"/>
<feGaussianBlur stdDeviation="0.5"/>
<feComposite in2="hardAlpha" operator="arithmetic" k2="-1" k3="1"/>
<feColorMatrix type="matrix" values="0 0 0 0 0.780392 0 0 0 0 0.533333 0 0 0 0 0.556863 0 0 0 1 0"/>
<feBlend mode="normal" in2="shape" result="effect1_innerShadow_542_435"/>
<feColorMatrix in="SourceAlpha" type="matrix" values="0 0 0 0 0 0 0 0 0 0 0 0 0 0 0 0 0 0 127 0" result="hardAlpha"/>
<feOffset dy="0.1"/>
<feGaussianBlur stdDeviation="0.15"/>
<feComposite in2="hardAlpha" operator="arithmetic" k2="-1" k3="1"/>
<feColorMatrix type="matrix" values="0 0 0 0 0.811765 0 0 0 0 0.635294 0 0 0 0 0.545098 0 0 0 1 0"/>
<feBlend mode="normal" in2="effect1_innerShadow_542_435" result="effect2_innerShadow_542_435"/>
</filter>
<filter id="filter2_f_542_435" x="0.695117" y="5.34502" width="1.42422" height="0.711816" filterUnits="userSpaceOnUse" color-interpolation-filters="sRGB">
<feFlood flood-opacity="0" result="BackgroundImageFix"/>
<feBlend mode="normal" in="SourceGraphic" in2="BackgroundImageFix" result="shape"/>
<feGaussianBlur stdDeviation="0.15" result="effect1_foregroundBlur_542_435"/>
</filter>
<filter id="filter3_i_542_435" x="4.84004" y="0.857617" width="2.75811" height="3.24468" filterUnits="userSpaceOnUse" color-interpolation-filters="sRGB">
<feFlood flood-opacity="0" result="BackgroundImageFix"/>
<feBlend mode="normal" in="SourceGraphic" in2="BackgroundImageFix" result="shape"/>
<feColorMatrix in="SourceAlpha" type="matrix" values="0 0 0 0 0 0 0 0 0 0 0 0 0 0 0 0 0 0 127 0" result="hardAlpha"/>
<feOffset dx="-0.2" dy="-0.2"/>
<feGaussianBlur stdDeviation="0.5"/>
<feComposite in2="hardAlpha" operator="arithmetic" k2="-1" k3="1"/>
<feColorMatrix type="matrix" values="0 0 0 0 0.913725 0 0 0 0 0.611765 0 0 0 0 0.545098 0 0 0 1 0"/>
<feBlend mode="normal" in2="shape" result="effect1_innerShadow_542_435"/>
</filter>
<filter id="filter4_i_542_435" x="5.07764" y="-0.0765137" width="3.31787" height="3.37559" filterUnits="userSpaceOnUse" color-interpolation-filters="sRGB">
<feFlood flood-opacity="0" result="BackgroundImageFix"/>
<feBlend mode="normal" in="SourceGraphic" in2="BackgroundImageFix" result="shape"/>
<feColorMatrix in="SourceAlpha" type="matrix" values="0 0 0 0 0 0 0 0 0 0 0 0 0 0 0 0 0 0 127 0" result="hardAlpha"/>
<feOffset dy="-0.15"/>
<feGaussianBlur stdDeviation="0.15"/>
<feComposite in2="hardAlpha" operator="arithmetic" k2="-1" k3="1"/>
<feColorMatrix type="matrix" values="0 0 0 0 0.14902 0 0 0 0 0.101961 0 0 0 0 0.109804 0 0 0 1 0"/>
<feBlend mode="normal" in2="shape" result="effect1_innerShadow_542_435"/>
</filter>
<filter id="filter5_i_542_435" x="5.33896" y="1.5061" width="0.650781" height="0.381982" filterUnits="userSpaceOnUse" color-interpolation-filters="sRGB">
<feFlood flood-opacity="0" result="BackgroundImageFix"/>
<feBlend mode="normal" in="SourceGraphic" in2="BackgroundImageFix" result="shape"/>
<feColorMatrix in="SourceAlpha" type="matrix" values="0 0 0 0 0 0 0 0 0 0 0 0 0 0 0 0 0 0 127 0" result="hardAlpha"/>
<feOffset dx="-0.1" dy="0.1"/>
<feGaussianBlur stdDeviation="0.1"/>
<feComposite in2="hardAlpha" operator="arithmetic" k2="-1" k3="1"/>
<feColorMatrix type="matrix" values="0 0 0 0 0.0705882 0 0 0 0 0.0588235 0 0 0 0 0.054902 0 0 0 1 0"/>
<feBlend mode="normal" in2="shape" result="effect1_innerShadow_542_435"/>
</filter>
<filter id="filter6_f_542_435" x="6.78369" y="0.184326" width="1.76074" height="2.48804" filterUnits="userSpaceOnUse" color-interpolation-filters="sRGB">
<feFlood flood-opacity="0" result="BackgroundImageFix"/>
<feBlend mode="normal" in="SourceGraphic" in2="BackgroundImageFix" result="shape"/>
<feGaussianBlur stdDeviation="0.25" result="effect1_foregroundBlur_542_435"/>
</filter>
<linearGradient id="paint0_linear_542_435" x1="3.2828" y1="12.4769" x2="3.69568" y2="12.3976" gradientUnits="userSpaceOnUse">
<stop offset="0.237"/>
<stop offset="1"/>
</linearGradient>
<linearGradient id="paint1_linear_542_435" x1="4.60749" y1="11.5156" x2="4.36562" y2="11.573" gradientUnits="userSpaceOnUse">
<stop/>
<stop offset="1" stop-opacity="0"/>
</linearGradient>
<linearGradient id="paint2_linear_542_435" x1="11.0933" y1="12.5794" x2="11.0607" y2="11.8915" gradientUnits="userSpaceOnUse">
<stop/>
<stop offset="1" stop-opacity="0"/>
</linearGradient>
<linearGradient id="paint3_linear_542_435" x1="10.744" y1="11.3706" x2="10.744" y2="11.8825" gradientUnits="userSpaceOnUse">
<stop/>
<stop offset="1" stop-opacity="0"/>
</linearGradient>
<radialGradient id="paint4_radial_542_435" cx="0" cy="0" r="1" gradientUnits="userSpaceOnUse" gradientTransform="translate(8.90538 11.0009) rotate(76.0831) scale(1.0232 0.825399)">
<stop offset="0.264"/>
<stop offset="1" stop-opacity="0"/>
</radialGradient>
<radialGradient id="paint5_radial_542_435" cx="0" cy="0" r="1" gradientUnits="userSpaceOnUse" gradientTransform="translate(8.87894 11.2737) rotate(100.972) scale(1.68921 1.8715)">
<stop offset="0.625" stop-opacity="0"/>
<stop offset="1"/>
</radialGradient>
<radialGradient id="paint6_radial_542_435" cx="0" cy="0" r="1" gradientUnits="userSpaceOnUse" gradientTransform="translate(7.56494 11.3879) rotate(76.7887) scale(1.48059 0.684106)">
<stop/>
<stop offset="1" stop-opacity="0"/>
</radialGradient>
<radialGradient id="paint7_radial_542_435" cx="0" cy="0" r="1" gradientUnits="userSpaceOnUse" gradientTransform="translate(5.47303 10.9843) rotate(-134.88) scale(1.38921 1.44439)">
<stop offset="0.132"/>
<stop offset="1" stop-opacity="0"/>
</radialGradient>
<radialGradient id="paint8_radial_542_435" cx="0" cy="0" r="1" gradientUnits="userSpaceOnUse" gradientTransform="translate(5.07311 11.0017) rotate(-162.066) scale(2.14074 2.74087)">
<stop offset="0.713" stop-opacity="0"/>
<stop offset="1"/>
</radialGradient>
<linearGradient id="paint9_linear_542_435" x1="4.25523" y1="9.22192" x2="4.25523" y2="9.96442" gradientUnits="userSpaceOnUse">
<stop/>
<stop offset="1" stop-opacity="0"/>
</linearGradient>
<radialGradient id="paint10_radial_542_435" cx="0" cy="0" r="1" gradientUnits="userSpaceOnUse" gradientTransform="translate(5.88236 6.69558) rotate(-137.447) scale(1.45559 2.06653)">
<stop offset="0.243"/>
<stop offset="1" stop-opacity="0"/>
</radialGradient>
<radialGradient id="paint11_radial_542_435" cx="0" cy="0" r="1" gradientUnits="userSpaceOnUse" gradientTransform="translate(4.4049 5.38571) rotate(90.588) scale(1.71396 4.61617)">
<stop offset="0.543" stop-opacity="0"/>
<stop offset="0.952"/>
</radialGradient>
<radialGradient id="paint12_radial_542_435" cx="0" cy="0" r="1" gradientUnits="userSpaceOnUse" gradientTransform="translate(4.2384 5.35927) rotate(96.1717) scale(0.654024 2.33504)">
<stop offset="0.411"/>
<stop offset="1" stop-opacity="0"/>
</radialGradient>
<radialGradient id="paint13_radial_542_435" cx="0" cy="0" r="1" gradientUnits="userSpaceOnUse" gradientTransform="translate(6.59262 8.56879) rotate(-89.685) scale(2.99791 1.90339)">
<stop offset="0.175"/>
<stop offset="1" stop-opacity="0"/>
</radialGradient>
<radialGradient id="paint14_radial_542_435" cx="0" cy="0" r="1" gradientUnits="userSpaceOnUse" gradientTransform="translate(5.83012 5.72686) rotate(102.351) scale(3.28786 1.2884)">
<stop/>
<stop offset="1" stop-opacity="0"/>
</radialGradient>
<radialGradient id="paint15_radial_542_435" cx="0" cy="0" r="1" gradientUnits="userSpaceOnUse" gradientTransform="translate(8.55152 6.96274) rotate(176.945) scale(1.41261 2.85554)">
<stop/>
<stop offset="1" stop-opacity="0"/>
</radialGradient>
<radialGradient id="paint16_radial_542_435" cx="0" cy="0" r="1" gradientUnits="userSpaceOnUse" gradientTransform="translate(8.71717 5.23017) rotate(128.721) scale(0.951497 1.15738)">
<stop offset="0.296"/>
<stop offset="1" stop-opacity="0"/>
</radialGradient>
<radialGradient id="paint17_radial_542_435" cx="0" cy="0" r="1" gradientUnits="userSpaceOnUse" gradientTransform="translate(7.02462 8.45291) rotate(-101.834) scale(1.88578 3.63555)">
<stop/>
<stop offset="1" stop-opacity="0"/>
</radialGradient>
<radialGradient id="paint18_radial_542_435" cx="0" cy="0" r="1" gradientUnits="userSpaceOnUse" gradientTransform="translate(7.77162 5.06048) rotate(-27.7585) scale(1.13226 0.892791)">
<stop offset="0.175"/>
<stop offset="1" stop-opacity="0"/>
</radialGradient>
<radialGradient id="paint19_radial_542_435" cx="0" cy="0" r="1" gradientUnits="userSpaceOnUse" gradientTransform="translate(3.71157 15.5815) rotate(-120.376) scale(1.23404 4.74571)">
<stop offset="0.742"/>
<stop offset="1"/>
</radialGradient>
<radialGradient id="paint20_radial_542_435" cx="0" cy="0" r="1" gradientUnits="userSpaceOnUse" gradientTransform="translate(5.81621 11.568) rotate(-51.5436) scale(1.35219 4.49818)">
<stop/>
<stop offset="1" stop-opacity="0"/>
</radialGradient>
<linearGradient id="paint21_linear_542_435" x1="10.2762" y1="4.94562" x2="10.171" y2="4.41855" gradientUnits="userSpaceOnUse">
<stop offset="0.076"/>
<stop offset="1" stop-opacity="0"/>
</linearGradient>
<radialGradient id="paint22_radial_542_435" cx="0" cy="0" r="1" gradientUnits="userSpaceOnUse" gradientTransform="translate(12.4104 1.008) rotate(136.224) scale(1.11795 0.984217)">
<stop/>
<stop offset="1" stop-opacity="0"/>
</radialGradient>
<radialGradient id="paint23_radial_542_435" cx="0" cy="0" r="1" gradientUnits="userSpaceOnUse" gradientTransform="translate(9.31554 4.3213) rotate(168.602) scale(0.546406 0.853759)">
<stop offset="0.164"/>
<stop offset="1"/>
</radialGradient>
<linearGradient id="paint24_linear_542_435" x1="1.15811" y1="5.77818" x2="1.15811" y2="5.5273" gradientUnits="userSpaceOnUse">
<stop/>
<stop offset="1" stop-opacity="0"/>
</linearGradient>
<linearGradient id="paint25_linear_542_435" x1="1.29385" y1="6.10606" x2="1.29385" y2="5.85574" gradientUnits="userSpaceOnUse">
<stop/>
<stop offset="1" stop-opacity="0"/>
</linearGradient>
<radialGradient id="paint26_radial_542_435" cx="0" cy="0" r="1" gradientUnits="userSpaceOnUse" gradientTransform="translate(9.82798 1.13196) rotate(-4.36751) scale(0.916725 0.921509)">
<stop/>
<stop offset="1" stop-opacity="0"/>
</radialGradient>
<radialGradient id="paint27_radial_542_435" cx="0" cy="0" r="1" gradientUnits="userSpaceOnUse" gradientTransform="translate(11.1202 1.06165) rotate(158.971) scale(1.46819)">
<stop offset="0.83" stop-opacity="0"/>
<stop offset="0.992"/>
</radialGradient>
<radialGradient id="paint28_radial_542_435" cx="0" cy="0" r="1" gradientUnits="userSpaceOnUse" gradientTransform="translate(4.99073 2.87794) rotate(-112.383) scale(0.190091 0.285295)">
<stop/>
<stop offset="1" stop-opacity="0"/>
</radialGradient>
<radialGradient id="paint29_radial_542_435" cx="0" cy="0" r="1" gradientUnits="userSpaceOnUse" gradientTransform="translate(6.95388 2.26249) rotate(-176.82) scale(0.509527 0.621214)">
<stop offset="0.156"/>
<stop offset="1" stop-opacity="0"/>
</radialGradient>
<radialGradient id="paint30_radial_542_435" cx="0" cy="0" r="1" gradientUnits="userSpaceOnUse" gradientTransform="translate(5.20788 2.97855) rotate(-90) scale(3.12781 1.21532)">
<stop offset="0.219"/>
<stop offset="1" stop-opacity="0"/>
</radialGradient>
<radialGradient id="paint31_radial_542_435" cx="0" cy="0" r="1" gradientUnits="userSpaceOnUse" gradientTransform="translate(5.70681 2.29062) rotate(90) scale(0.23553 0.367313)">
<stop offset="0.155"/>
<stop offset="1" stop-opacity="0"/>
</radialGradient>
<radialGradient id="paint32_radial_542_435" cx="0" cy="0" r="1" gradientUnits="userSpaceOnUse" gradientTransform="translate(6.44434 1.68669) rotate(-38.984) scale(1.86695 2.83811)">
<stop offset="0.194"/>
<stop offset="1"/>
</radialGradient>
<radialGradient id="paint33_radial_542_435" cx="0" cy="0" r="1" gradientUnits="userSpaceOnUse" gradientTransform="translate(6.82347 1.89538) rotate(-13.3242) scale(0.551857 1.47865)">
<stop offset="0.353"/>
<stop offset="0.584" stop-color="#363131" stop-opacity="0"/>
</radialGradient>
<radialGradient id="paint34_radial_542_435" cx="0" cy="0" r="1" gradientUnits="userSpaceOnUse" gradientTransform="translate(6.83835 2.01114) rotate(79.1568) scale(0.724257 0.754714)">
<stop offset="0.556" stop-opacity="0"/>
<stop offset="1"/>
</radialGradient>
<linearGradient id="paint35_linear_542_435" x1="6.78604" y1="2.23333" x2="6.87548" y2="2.24064" gradientUnits="userSpaceOnUse">
<stop/>
<stop offset="1" stop-opacity="0"/>
</linearGradient>
<linearGradient id="paint36_linear_542_435" x1="5.4376" y1="2.06942" x2="5.52465" y2="2.14951" gradientUnits="userSpaceOnUse">
<stop stop-color="white"/>
<stop offset="1" stop-color="white" stop-opacity="0"/>
</linearGradient>
</defs>
</svg>
