<svg width="21" height="19" viewBox="0 0 21 19" fill="none" xmlns="http://www.w3.org/2000/svg">
<path d="M7.8461 7.19995C6.8801 7.19995 6.0961 7.98395 6.0961 8.94995V13.699C6.0961 14.8927 6.57031 16.0375 7.41441 16.8816C8.25851 17.7257 9.40336 18.2 10.5971 18.2C11.7908 18.2 12.9357 17.7257 13.7798 16.8816C14.6239 16.0375 15.0981 14.8927 15.0981 13.699V8.94995C15.0981 7.98395 14.3151 7.19995 13.3481 7.19995H7.8461V7.19995ZM15.4691 7.19995C15.8293 7.63341 16.0459 8.16804 16.0891 8.72995L16.0991 8.94995V13.699C16.0991 14.546 15.9071 15.348 15.5651 16.064C16.1578 16.2225 16.7791 16.2426 17.3808 16.1228C17.9825 16.0029 18.5486 15.7462 19.0354 15.3726C19.5221 14.999 19.9163 14.5185 20.1876 13.9682C20.459 13.4179 20.6001 12.8125 20.6001 12.199V8.94995C20.6001 8.51076 20.4349 8.08763 20.1374 7.76456C19.8399 7.44149 19.4318 7.24209 18.9941 7.20595L18.8501 7.19995H15.4691V7.19995ZM5.7251 7.19995H2.3501C1.3841 7.19995 0.600098 7.98395 0.600098 8.94995V12.2C0.599962 12.8131 0.740793 13.4181 1.01171 13.9682C1.28263 14.5182 1.67638 14.9987 2.16253 15.3723C2.64869 15.746 3.21425 16.0029 3.8155 16.1231C4.41676 16.2434 5.03761 16.2238 5.6301 16.066C5.3301 15.438 5.1461 14.746 5.1051 14.014L5.0961 13.699V8.94995C5.0961 8.28495 5.3321 7.67495 5.7261 7.19995H5.7251ZM10.6001 0.199951C9.80445 0.199951 9.04139 0.516022 8.47878 1.07863C7.91617 1.64124 7.6001 2.4043 7.6001 3.19995C7.6001 3.9956 7.91617 4.75866 8.47878 5.32127C9.04139 5.88388 9.80445 6.19995 10.6001 6.19995C11.3957 6.19995 12.1588 5.88388 12.7214 5.32127C13.284 4.75866 13.6001 3.9956 13.6001 3.19995C13.6001 2.4043 13.284 1.64124 12.7214 1.07863C12.1588 0.516022 11.3957 0.199951 10.6001 0.199951V0.199951ZM4.1001 1.19995C3.43706 1.19995 2.80117 1.46334 2.33233 1.93218C1.86349 2.40103 1.6001 3.03691 1.6001 3.69995C1.6001 4.36299 1.86349 4.99888 2.33233 5.46772C2.80117 5.93656 3.43706 6.19995 4.1001 6.19995C4.76314 6.19995 5.39902 5.93656 5.86786 5.46772C6.33671 4.99888 6.6001 4.36299 6.6001 3.69995C6.6001 3.03691 6.33671 2.40103 5.86786 1.93218C5.39902 1.46334 4.76314 1.19995 4.1001 1.19995ZM17.1001 1.19995C16.4371 1.19995 15.8012 1.46334 15.3323 1.93218C14.8635 2.40103 14.6001 3.03691 14.6001 3.69995C14.6001 4.36299 14.8635 4.99888 15.3323 5.46772C15.8012 5.93656 16.4371 6.19995 17.1001 6.19995C17.7631 6.19995 18.399 5.93656 18.8679 5.46772C19.3367 4.99888 19.6001 4.36299 19.6001 3.69995C19.6001 3.03691 19.3367 2.40103 18.8679 1.93218C18.399 1.46334 17.7631 1.19995 17.1001 1.19995V1.19995Z" fill="#07A157"/>
</svg>
