<svg width="22" height="20" viewBox="0 0 22 20" fill="none" xmlns="http://www.w3.org/2000/svg">
<path d="M21.2485 9.86658L11.5664 0.219707C11.4967 0.150061 11.4139 0.0948059 11.3227 0.0571057C11.2316 0.0194055 11.1339 0 11.0352 0C10.9365 0 10.8388 0.0194055 10.7476 0.0571057C10.6564 0.0948059 10.5736 0.150061 10.5039 0.219707L0.821796 9.86658C0.539724 10.1478 0.379883 10.5299 0.379883 10.9283C0.379883 11.7556 1.05451 12.4283 1.88427 12.4283H2.90443V19.3119C2.90443 19.7267 3.24057 20.0619 3.65662 20.0619H9.53078V14.8119H12.1635V20.0619H18.4137C18.8298 20.0619 19.1659 19.7267 19.1659 19.3119V12.4283H20.1861C20.5857 12.4283 20.9688 12.2713 21.2509 11.9877C21.8362 11.4017 21.8362 10.4525 21.2485 9.86658V9.86658Z" fill="#07A157"/>
</svg>
