<svg width="14" height="14" viewBox="0 0 14 14" fill="none" xmlns="http://www.w3.org/2000/svg">
<path d="M13.3281 4.92578C13.4055 4.92578 13.4688 4.8625 13.4688 4.78516V3.73047C13.4688 3.65313 13.4055 3.58984 13.3281 3.58984H10.4453V0.671875C10.4453 0.594531 10.382 0.53125 10.3047 0.53125H9.17969C9.10234 0.53125 9.03906 0.594531 9.03906 0.671875V3.58984H5.03125V0.671875C5.03125 0.594531 4.96797 0.53125 4.89062 0.53125H3.76562C3.68828 0.53125 3.625 0.594531 3.625 0.671875V3.58984H0.671875C0.594531 3.58984 0.53125 3.65313 0.53125 3.73047V4.78516C0.53125 4.8625 0.594531 4.92578 0.671875 4.92578H3.625V9.07422H0.671875C0.594531 9.07422 0.53125 9.1375 0.53125 9.21484V10.2695C0.53125 10.3469 0.594531 10.4102 0.671875 10.4102H3.625V13.3281C3.625 13.4055 3.68828 13.4688 3.76562 13.4688H4.89062C4.96797 13.4688 5.03125 13.4055 5.03125 13.3281V10.4102H9.03906V13.3281C9.03906 13.4055 9.10234 13.4688 9.17969 13.4688H10.3047C10.382 13.4688 10.4453 13.4055 10.4453 13.3281V10.4102H13.3281C13.4055 10.4102 13.4688 10.3469 13.4688 10.2695V9.21484C13.4688 9.1375 13.4055 9.07422 13.3281 9.07422H10.4453V4.92578H13.3281ZM9.03906 9.07422H5.03125V4.92578H9.03906V9.07422Z" fill="black"/>
</svg>
