<svg width="14" height="24" viewBox="0 0 14 24" fill="none" xmlns="http://www.w3.org/2000/svg">
<path d="M11.1481 9.84711L8.34218 8.27574C5.7737 6.83007 4.88876 3.62446 6.37805 1.1312L4.51104 0.083616C2.79512 2.954 3.33471 6.49484 5.55786 8.78905L0 18.1335L1.86701 19.1811L3.4858 16.4574L5.35281 17.505L2.11522 22.9524L3.98223 24L10.7704 12.5918C11.3921 13.4108 11.7548 14.3877 11.8142 15.4034C11.8736 16.4191 11.6272 17.4296 11.1049 18.3116L12.9719 19.3592C14.6986 16.4783 14.3533 12.4661 11.1481 9.84711V9.84711ZM7.81338 2.92257C8.5904 3.35208 9.57246 3.10066 10.0257 2.3464C10.4682 1.59214 10.2092 0.638836 9.43217 0.19885C9.06054 -0.00216375 8.62235 -0.0531906 8.21229 0.0567933C7.80222 0.166777 7.45318 0.428942 7.24058 0.786653C7.02799 1.14436 6.96889 1.5689 7.07607 1.96855C7.18324 2.36821 7.44808 2.71089 7.81338 2.92257V2.92257Z" fill="#07A157"/>
</svg>
