<svg width="24" height="24" viewBox="0 0 24 24" fill="none" xmlns="http://www.w3.org/2000/svg">
<g clip-path="url(#clip0_461_450)">
<path d="M16.2187 11.0781C15.6733 10.5119 15.0192 10.0616 14.2956 9.75417C13.5721 9.44676 12.7939 9.28856 12.0077 9.28906C10.4765 9.28906 8.95304 9.88281 7.79679 11.0781C5.47648 13.4609 5.47648 17.3359 7.79679 19.7188C8.34168 20.2856 8.99566 20.7364 9.71934 21.0438C10.443 21.3513 11.2214 21.5091 12.0077 21.5078C13.5937 21.5078 15.0937 20.875 16.2187 19.7188C17.3434 18.5628 17.9691 17.0113 17.9609 15.3984C17.9609 13.7656 17.3437 12.2344 16.2187 11.0781ZM10.8827 13.5781L11.5312 12.2344C11.7265 11.8281 12.289 11.8281 12.4999 12.2344L13.1484 13.5781C13.2265 13.7422 13.3749 13.8516 13.5468 13.875L14.9921 14.0938C15.4218 14.1563 15.5937 14.7031 15.2812 15.0156L14.2812 16.0156C14.1327 16.1641 14.078 16.3828 14.1484 16.5859L14.6093 17.9219C14.7655 18.3672 14.3202 18.7891 13.8984 18.6016L12.2265 17.8516C12.0937 17.7891 11.9374 17.7891 11.8046 17.8516L10.1327 18.6016C9.70304 18.7891 9.26554 18.3672 9.42179 17.9219L9.88273 16.5859C9.91474 16.4878 9.91928 16.3828 9.89587 16.2823C9.87246 16.1817 9.82199 16.0895 9.74992 16.0156L8.74992 15.0156C8.42961 14.7031 8.60929 14.1563 9.03898 14.0938L10.4843 13.875C10.5697 13.8613 10.6506 13.8271 10.7199 13.7754C10.7893 13.7238 10.8452 13.6561 10.8827 13.5781Z" fill="white"/>
<path d="M20.0405 1.57031L20.0382 1.57422H15.1671C14.6436 1.57422 14.1733 1.83594 13.9155 2.28906L11.9999 5.43906L10.0882 2.29688C9.82254 1.84375 9.34598 1.57031 8.82254 1.57031H7.22879L7.23114 1.57422H3.66785C2.54285 1.57422 1.83817 2.78906 2.40067 3.78125C3.42668 5.60427 4.8797 7.15113 6.63504 8.28906C6.91082 8.50312 7.21551 8.67188 7.53895 8.79141C5.49989 10.243 4.16395 12.6609 4.16395 15.3984C4.16395 19.8383 7.67645 23.4375 12.0077 23.4375C16.3405 23.4375 19.8514 19.8383 19.8514 15.3984C19.8514 12.6555 18.5116 10.2328 16.4655 8.78203C16.7907 8.6624 17.0956 8.4935 17.3694 8.28125C19.1194 7.14062 20.5725 5.59375 21.6038 3.77344C22.1585 2.78906 21.4475 1.57031 20.3147 1.57031H20.0413H20.0405ZM14.6264 7.81875C14.1721 7.65358 13.703 7.53194 13.2257 7.45547L13.1132 7.27109L16.2679 2.34375H19.5882C18.3345 4.38638 16.7197 6.18388 14.8225 7.64844C14.7577 7.70703 14.6929 7.76328 14.6264 7.81875ZM4.38895 2.34375H7.72488L10.9843 7.42734C10.4348 7.50057 9.89486 7.63338 9.3741 7.82344C9.30543 7.76684 9.23822 7.70849 9.17254 7.64844C7.26924 6.18523 5.64827 4.38768 4.38895 2.34375ZM16.8749 20.3984C16.2439 21.0545 15.4868 21.576 14.649 21.9318C13.8112 22.2876 12.9101 22.4703 11.9999 22.4688C10.1639 22.4688 8.42957 21.7344 7.11707 20.3984C4.42957 17.6406 4.42957 13.1562 7.11707 10.3984C7.75011 9.74422 8.50826 9.224 9.34642 8.86872C10.1846 8.51344 11.0856 8.33035 11.996 8.33035C12.9063 8.33035 13.8074 8.51344 14.6455 8.86872C15.4837 9.224 16.2418 9.74422 16.8749 10.3984C18.1801 11.7345 18.907 13.5306 18.8983 15.3984C18.8983 17.2891 18.1796 19.0625 16.8749 20.3984Z" fill="white"/>
</g>
<defs>
<clipPath id="clip0_461_450">
<rect width="24" height="24" fill="white" transform="matrix(-1 0 0 1 24 0)"/>
</clipPath>
</defs>
</svg>
