<svg width="20" height="23" viewBox="0 0 20 23" fill="none" xmlns="http://www.w3.org/2000/svg">
<path d="M14.2187 10.0781C13.6733 9.5119 13.0192 9.06159 12.2956 8.75417C11.5721 8.44676 10.7939 8.28856 10.0077 8.28906C8.47648 8.28906 6.95305 8.88281 5.7968 10.0781C3.47648 12.4609 3.47648 16.3359 5.7968 18.7188C6.34168 19.2856 6.99566 19.7364 7.71934 20.0438C8.44302 20.3513 9.22144 20.5091 10.0077 20.5078C11.5937 20.5078 13.0937 19.875 14.2187 18.7188C15.3434 17.5628 15.9691 16.0113 15.9609 14.3984C15.9609 12.7656 15.3437 11.2344 14.2187 10.0781V10.0781ZM8.88273 12.5781L9.53117 11.2344C9.72648 10.8281 10.289 10.8281 10.4999 11.2344L11.1484 12.5781C11.2265 12.7422 11.3749 12.8516 11.5468 12.875L12.9921 13.0938C13.4218 13.1563 13.5937 13.7031 13.2812 14.0156L12.2812 15.0156C12.1327 15.1641 12.078 15.3828 12.1484 15.5859L12.6093 16.9219C12.7655 17.3672 12.3202 17.7891 11.8984 17.6016L10.2265 16.8516C10.0937 16.7891 9.93742 16.7891 9.80461 16.8516L8.13273 17.6016C7.70304 17.7891 7.26555 17.3672 7.4218 16.9219L7.88273 15.5859C7.91474 15.4878 7.91928 15.3828 7.89587 15.2823C7.87246 15.1817 7.82199 15.0895 7.74992 15.0156L6.74992 14.0156C6.42961 13.7031 6.60929 13.1563 7.03898 13.0938L8.48429 12.875C8.56972 12.8613 8.65056 12.8271 8.71994 12.7754C8.78931 12.7238 8.84516 12.6561 8.88273 12.5781V12.5781Z" fill="#07A157"/>
<path d="M18.0405 0.570312L18.0382 0.574219H13.1671C12.6436 0.574219 12.1733 0.835938 11.9155 1.28906L9.99988 4.43906L8.08817 1.29688C7.82254 0.84375 7.34598 0.570312 6.82254 0.570312H5.22879L5.23114 0.574219H1.66785C0.542853 0.574219 -0.161834 1.78906 0.400666 2.78125C1.42668 4.60427 2.8797 6.15113 4.63504 7.28906C4.91082 7.50312 5.21551 7.67188 5.53895 7.79141C3.49989 9.24297 2.16395 11.6609 2.16395 14.3984C2.16395 18.8383 5.67645 22.4375 10.0077 22.4375C14.3405 22.4375 17.8514 18.8383 17.8514 14.3984C17.8514 11.6555 16.5116 9.23281 14.4655 7.78203C14.7907 7.6624 15.0956 7.4935 15.3694 7.28125C17.1194 6.14063 18.5725 4.59375 19.6038 2.77344C20.1585 1.78906 19.4475 0.570312 18.3147 0.570312H18.0413H18.0405ZM12.6264 6.81875C12.1721 6.65358 11.703 6.53194 11.2257 6.45547L11.1132 6.27109L14.2679 1.34375H17.5882C16.3345 3.38638 14.7197 5.18388 12.8225 6.64844C12.7577 6.70703 12.6929 6.76328 12.6264 6.81875ZM2.38895 1.34375H5.72489L8.98426 6.42734C8.43476 6.50057 7.89486 6.63338 7.3741 6.82344C7.30543 6.76684 7.23822 6.70849 7.17254 6.64844C5.26924 5.18523 3.64827 3.38768 2.38895 1.34375V1.34375ZM14.8749 19.3984C14.2439 20.0545 13.4868 20.576 12.649 20.9318C11.8112 21.2876 10.9101 21.4703 9.99988 21.4688C8.16395 21.4688 6.42957 20.7344 5.11707 19.3984C2.42957 16.6406 2.42957 12.1563 5.11707 9.39844C5.75011 8.74422 6.50826 8.224 7.34642 7.86872C8.18458 7.51344 9.08563 7.33035 9.99598 7.33035C10.9063 7.33035 11.8074 7.51344 12.6455 7.86872C13.4837 8.224 14.2418 8.74422 14.8749 9.39844C16.1801 10.7345 16.907 12.5306 16.8983 14.3984C16.8983 16.2891 16.1796 18.0625 14.8749 19.3984Z" fill="#07A157"/>
</svg>
