<svg width="23" height="23" viewBox="0 0 23 23" fill="none" xmlns="http://www.w3.org/2000/svg">
<path d="M11.906 14.6165C10.829 14.6165 9.95596 13.6465 9.95596 12.4499C9.95596 11.2533 10.829 10.2832 11.906 10.2832C12.9829 10.2832 13.856 11.2533 13.856 12.4499C13.856 13.6465 12.9829 14.6165 11.906 14.6165Z" fill="white" stroke="#07A157" stroke-width="2.5" stroke-linecap="round" stroke-linejoin="round"/>
<path d="M9.95654 10.2839L8.00654 8.11719" stroke="#07A157" stroke-width="2.5" stroke-linecap="round" stroke-linejoin="round"/>
<path d="M17.9729 21.1172C19.5566 19.7051 20.7095 17.7754 21.2719 15.5955C21.8343 13.4155 21.7783 11.0933 21.1117 8.95069C20.4451 6.80804 19.2009 4.95106 17.5515 3.63707C15.9021 2.32309 13.9292 1.61719 11.9062 1.61719C9.88327 1.61719 7.91037 2.32309 6.26098 3.63707C4.61159 4.95106 3.36738 6.80804 2.70078 8.95069C2.03418 11.0933 1.9782 13.4155 2.54059 15.5955C3.10299 17.7754 4.25591 19.7051 5.83958 21.1172H17.9729Z" stroke="#07A157" stroke-width="2.5" stroke-linecap="round" stroke-linejoin="round"/>
</svg>
