<svg width="8" height="18" viewBox="0 0 8 18" fill="none" xmlns="http://www.w3.org/2000/svg">
<path d="M5.79358 4.08052C6.07049 4.08052 6.32534 4.134 6.5582 4.24099C7.24937 4.58889 7.65748 5.25007 7.66267 5.98736V11.0659C7.53302 11.8733 6.60892 11.6538 6.58654 11.0659V6.27055C6.50419 5.99709 5.97614 6.11047 5.96351 6.27055V17.2773C5.82925 18.4013 4.37692 18.0713 4.33988 17.2585V10.5184C4.24702 10.0837 3.63584 10.2813 3.62245 10.5373C3.64837 12.7776 3.64133 15.0181 3.64133 17.2585C3.49649 18.3766 2.05123 18.0905 2.01769 17.2773L1.99882 6.27055C1.91417 6.00298 1.42487 6.10561 1.41353 6.27055V11.0659C1.28387 11.8733 0.359782 11.6538 0.337402 11.0659V5.98736C0.350467 5.28152 0.609157 4.5744 1.22474 4.24099C1.42613 4.134 1.67156 4.08051 1.96105 4.08051L5.79358 4.08052ZM5.77454 1.77416C5.77454 2.754 4.98022 3.54832 4.00037 3.54832C3.02054 3.54832 2.22622 2.754 2.22622 1.77416C2.2262 0.794325 3.02053 0 4.00034 0C4.98022 0 5.77454 0.794325 5.77454 1.77416Z" fill="black"/>
</svg>
