<svg width="18" height="17" viewBox="0 0 18 17" fill="none" xmlns="http://www.w3.org/2000/svg">
<path d="M9 0.6875C4.96793 0.6875 1.6875 3.96793 1.6875 8C1.6875 12.0321 4.96793 15.3125 9 15.3125C13.0321 15.3125 16.3125 12.0321 16.3125 8C16.3125 3.96793 13.0321 0.6875 9 0.6875ZM14.0273 11.375H12.4376C12.3883 11.3749 12.3399 11.3618 12.2973 11.3372C12.2547 11.3125 12.2193 11.277 12.1946 11.2344L11.6272 10.2613C11.5899 10.1976 11.579 10.1219 11.597 10.0503L12.1194 7.94375C12.1299 7.9013 12.1501 7.86189 12.1785 7.82863C12.2069 7.79537 12.2426 7.76918 12.2829 7.75215L13.2708 7.33379C13.3191 7.31332 13.3721 7.30675 13.4239 7.31483C13.4757 7.3229 13.5242 7.3453 13.564 7.37949L15.0275 8.63879C15.0636 8.66985 15.0912 8.70956 15.1078 8.7542C15.1243 8.79884 15.1292 8.84695 15.1221 8.89402C15.0009 9.72558 14.7104 10.5234 14.2685 11.2382C14.2436 11.2799 14.2082 11.3144 14.166 11.3384C14.1237 11.3624 14.0759 11.375 14.0273 11.375ZM4.72922 7.3366L5.71711 7.75496C5.75738 7.77199 5.79312 7.79818 5.82149 7.83144C5.84987 7.8647 5.8701 7.90412 5.88059 7.94656L6.40301 10.0531C6.42099 10.1247 6.41013 10.2004 6.37277 10.2641L5.80535 11.2344C5.78072 11.277 5.74532 11.3125 5.70268 11.3372C5.66005 11.3618 5.61168 11.3749 5.56242 11.375H3.97266C3.92457 11.375 3.87729 11.3627 3.83531 11.3393C3.79334 11.3158 3.75807 11.282 3.73289 11.2411C3.29103 10.5263 3.00051 9.7284 2.8793 8.89684C2.87217 8.84977 2.87711 8.80166 2.89365 8.75702C2.91019 8.71238 2.93779 8.67266 2.97387 8.6416L4.43742 7.3823C4.47704 7.34838 4.52531 7.32614 4.57684 7.31807C4.62837 7.31 4.68113 7.31641 4.72922 7.3366ZM13.7623 4.26957L13.127 6.0759C13.1142 6.11281 13.0939 6.14667 13.0673 6.1753C13.0408 6.20393 13.0085 6.22671 12.9727 6.24219L11.9327 6.6827C11.885 6.70288 11.8326 6.7095 11.7814 6.70181C11.7302 6.69411 11.682 6.67241 11.6423 6.6391L9.66445 4.98008C9.63285 4.95393 9.60735 4.92119 9.58973 4.88414C9.57212 4.84709 9.56283 4.80664 9.5625 4.76562V3.58508C9.56253 3.53882 9.57396 3.49329 9.59579 3.45251C9.61763 3.41173 9.64918 3.37696 9.68766 3.35129L11.1934 2.34793C11.2327 2.3217 11.278 2.30579 11.325 2.30168C11.3721 2.29756 11.4194 2.30537 11.4627 2.32437C12.3291 2.70226 13.098 3.27264 13.7109 3.99219C13.7432 4.02981 13.7649 4.07527 13.7739 4.12398C13.7829 4.17269 13.7789 4.22291 13.7623 4.26957ZM6.80625 2.34793L8.31234 3.35129C8.35082 3.37696 8.38237 3.41173 8.40421 3.45251C8.42604 3.49329 8.43747 3.53882 8.4375 3.58508V4.76562C8.4375 4.80671 8.4285 4.8473 8.41112 4.88453C8.39375 4.92176 8.36844 4.95474 8.33695 4.98113L6.35906 6.64016C6.31937 6.67347 6.27125 6.69517 6.22001 6.70286C6.16877 6.71055 6.11639 6.70394 6.06867 6.68375L5.02734 6.24219C4.99126 6.22691 4.95876 6.20425 4.93194 6.17567C4.90512 6.1471 4.88457 6.11323 4.8716 6.07625L4.23633 4.26992C4.21982 4.22309 4.216 4.17273 4.22526 4.12395C4.23453 4.07517 4.25654 4.02971 4.28906 3.99219C4.90236 3.27191 5.67188 2.70103 6.53906 2.32297C6.58215 2.30454 6.62916 2.29717 6.67583 2.30153C6.72249 2.30589 6.76732 2.32184 6.80625 2.34793ZM7.4148 13.8602L6.72117 12.1133C6.70531 12.0736 6.69871 12.0308 6.70188 11.9881C6.70505 11.9455 6.7179 11.9041 6.73945 11.8672L7.27277 10.9531C7.2974 10.9105 7.33281 10.875 7.37544 10.8503C7.41807 10.8257 7.46644 10.8126 7.5157 10.8125H10.4843C10.5336 10.8126 10.5819 10.8257 10.6246 10.8503C10.6672 10.875 10.7026 10.9105 10.7272 10.9531L11.2609 11.8672C11.2825 11.9041 11.2954 11.9454 11.2986 11.9881C11.3019 12.0307 11.2953 12.0735 11.2795 12.1133L10.5908 13.8595C10.574 13.9022 10.5469 13.9401 10.5121 13.97C10.4772 13.9998 10.4356 14.0207 10.3908 14.0307C9.47688 14.2405 8.52734 14.2405 7.61344 14.0307C7.56899 14.0205 7.52768 13.9997 7.49307 13.97C7.45847 13.9403 7.43161 13.9026 7.4148 13.8602Z" fill="black"/>
</svg>
