<svg width="24" height="24" viewBox="0 0 24 24" fill="none" xmlns="http://www.w3.org/2000/svg">
<path d="M8.8461 10.2C7.8801 10.2 7.0961 10.984 7.0961 11.95V16.699C7.0961 17.8927 7.57031 19.0375 8.41441 19.8816C9.25851 20.7257 10.4034 21.2 11.5971 21.2C12.7908 21.2 13.9357 20.7257 14.7798 19.8816C15.6239 19.0375 16.0981 17.8927 16.0981 16.699V11.95C16.0981 10.984 15.3151 10.2 14.3481 10.2H8.8461ZM16.4691 10.2C16.8293 10.6334 17.0459 11.168 17.0891 11.73L17.0991 11.95V16.699C17.0991 17.546 16.9071 18.348 16.5651 19.064C17.1578 19.2225 17.7791 19.2426 18.3808 19.1228C18.9825 19.0029 19.5486 18.7462 20.0354 18.3726C20.5221 17.999 20.9163 17.5185 21.1876 16.9682C21.459 16.4179 21.6001 15.8125 21.6001 15.199V11.95C21.6001 11.5108 21.4349 11.0876 21.1374 10.7646C20.8399 10.4415 20.4318 10.2421 19.9941 10.206L19.8501 10.2H16.4691ZM6.7251 10.2H3.3501C2.3841 10.2 1.6001 10.984 1.6001 11.95V15.2C1.59996 15.8131 1.74079 16.4181 2.01171 16.9682C2.28263 17.5182 2.67637 17.9987 3.16253 18.3723C3.64869 18.746 4.21425 19.0029 4.8155 19.1231C5.41676 19.2434 6.03761 19.2238 6.6301 19.066C6.3301 18.438 6.1461 17.746 6.1051 17.014L6.0961 16.699V11.95C6.0961 11.285 6.3321 10.675 6.7261 10.2H6.7251ZM11.6001 3.19995C10.8044 3.19995 10.0414 3.51602 9.47878 4.07863C8.91617 4.64124 8.6001 5.4043 8.6001 6.19995C8.6001 6.9956 8.91617 7.75866 9.47878 8.32127C10.0414 8.88388 10.8044 9.19995 11.6001 9.19995C12.3957 9.19995 13.1588 8.88388 13.7214 8.32127C14.284 7.75866 14.6001 6.9956 14.6001 6.19995C14.6001 5.4043 14.284 4.64124 13.7214 4.07863C13.1588 3.51602 12.3957 3.19995 11.6001 3.19995ZM5.1001 4.19995C4.43706 4.19995 3.80117 4.46334 3.33233 4.93218C2.86349 5.40103 2.6001 6.03691 2.6001 6.69995C2.6001 7.36299 2.86349 7.99888 3.33233 8.46772C3.80117 8.93656 4.43706 9.19995 5.1001 9.19995C5.76314 9.19995 6.39902 8.93656 6.86786 8.46772C7.33671 7.99888 7.6001 7.36299 7.6001 6.69995C7.6001 6.03691 7.33671 5.40103 6.86786 4.93218C6.39902 4.46334 5.76314 4.19995 5.1001 4.19995ZM18.1001 4.19995C17.4371 4.19995 16.8012 4.46334 16.3323 4.93218C15.8635 5.40103 15.6001 6.03691 15.6001 6.69995C15.6001 7.36299 15.8635 7.99888 16.3323 8.46772C16.8012 8.93656 17.4371 9.19995 18.1001 9.19995C18.7631 9.19995 19.399 8.93656 19.8679 8.46772C20.3367 7.99888 20.6001 7.36299 20.6001 6.69995C20.6001 6.03691 20.3367 5.40103 19.8679 4.93218C19.399 4.46334 18.7631 4.19995 18.1001 4.19995Z" fill="white"/>
</svg>
