<svg width="18" height="17" viewBox="0 0 18 17" fill="none" xmlns="http://www.w3.org/2000/svg">
<path d="M10.5 0.5H4.5C3.675 0.5 3 1.175 3 2V14C3 14.825 3.675 15.5 4.5 15.5H13.5C14.325 15.5 15 14.825 15 14V5L10.5 0.5ZM9 6.5C9.825 6.5 10.5 7.175 10.5 8C10.5 8.825 9.825 9.5 9 9.5C8.175 9.5 7.5 8.825 7.5 8C7.5 7.175 8.175 6.5 9 6.5ZM12 12.5H6V12.0725C6 11.465 6.36 10.925 6.915 10.685C7.57264 10.398 8.28246 10.2498 9 10.2498C9.71754 10.2498 10.4274 10.398 11.085 10.685C11.3567 10.8011 11.5883 10.9946 11.751 11.2413C11.9137 11.4879 12.0003 11.777 12 12.0725V12.5Z" fill="black"/>
</svg>
