<svg width="20" height="20" viewBox="0 0 20 20" fill="none" xmlns="http://www.w3.org/2000/svg">
<path d="M2.56992 10.98C2.52991 10.66 2.49992 10.34 2.49992 10C2.49992 9.66 2.52991 9.34 2.56992 9.02L0.459915 7.37C0.269915 7.22 0.219915 6.95 0.339916 6.73L2.33992 3.27C2.42992 3.11 2.59992 3.02 2.77992 3.02C2.83992 3.02 2.89992 3.03 2.94992 3.05L5.43992 4.05C5.95992 3.65 6.51992 3.32 7.12992 3.07L7.50992 0.42C7.53992 0.18 7.74992 0 7.99992 0H11.9999C12.2499 0 12.4599 0.18 12.4899 0.42L12.8699 3.07C13.4799 3.32 14.0399 3.66 14.5599 4.05L17.0499 3.05C17.1099 3.03 17.1699 3.02 17.2299 3.02C17.3999 3.02 17.5699 3.11 17.6599 3.27L19.6599 6.73C19.7899 6.95 19.7299 7.22 19.5399 7.37L17.4299 9.02C17.4699 9.34 17.4999 9.67 17.4999 10C17.4999 10.33 17.4699 10.66 17.4299 10.98L19.5399 12.63C19.7299 12.78 19.7799 13.05 19.6599 13.27L17.6599 16.73C17.5699 16.89 17.3999 16.98 17.2199 16.98C17.1599 16.98 17.0999 16.97 17.0499 16.95L14.5599 15.95C14.0399 16.35 13.4799 16.68 12.8699 16.93L12.4899 19.58C12.4599 19.82 12.2499 20 11.9999 20H7.99992C7.74992 20 7.53992 19.82 7.50992 19.58L7.12992 16.93C6.51992 16.68 5.95992 16.34 5.43992 15.95L2.94992 16.95C2.88992 16.97 2.82992 16.98 2.76992 16.98C2.59992 16.98 2.42992 16.89 2.33992 16.73L0.339916 13.27C0.219915 13.05 0.269915 12.78 0.459915 12.63L2.56992 10.98ZM4.54992 9.27C4.50992 9.58 4.49992 9.79 4.49992 10C4.49992 10.21 4.51992 10.43 4.54992 10.73L4.68992 11.86L3.79992 12.56L2.71992 13.4L3.41992 14.61L4.68992 14.1L5.72992 13.68L6.62992 14.36C7.05992 14.68 7.46992 14.92 7.87992 15.09L8.93992 15.52L9.09992 16.65L9.29992 18H10.6999L10.8899 16.65L11.0499 15.52L12.1099 15.09C12.5399 14.91 12.9399 14.68 13.3399 14.38L14.2499 13.68L15.3099 14.11L16.5799 14.62L17.2799 13.41L16.1999 12.57L15.3099 11.87L15.4499 10.74C15.4799 10.43 15.4999 10.2 15.4999 10C15.4999 9.8 15.4799 9.57 15.4499 9.27L15.3099 8.14L16.1999 7.44L17.2799 6.6L16.5799 5.39L15.3099 5.9L14.2699 6.32L13.3699 5.64C12.9399 5.32 12.5299 5.08 12.1199 4.91L11.0599 4.48L10.8999 3.35L10.6999 2H9.30992L9.11992 3.35L8.95992 4.48L7.89992 4.91C7.46992 5.09 7.06992 5.32 6.66992 5.62L5.75992 6.32L4.69992 5.89L3.42992 5.38L2.72992 6.59L3.79992 7.44L4.68992 8.14L4.54992 9.27ZM9.99992 6C12.2099 6 13.9999 7.79 13.9999 10C13.9999 12.21 12.2099 14 9.99992 14C7.78992 14 5.99992 12.21 5.99992 10C5.99992 7.79 7.78992 6 9.99992 6ZM9.99992 12C11.0999 12 11.9999 11.1 11.9999 10C11.9999 8.9 11.0999 8 9.99992 8C8.89992 8 7.99992 8.9 7.99992 10C7.99992 11.1 8.89992 12 9.99992 12Z" fill="white"/>
</svg>
