<svg width="22" height="20" viewBox="0 0 22 20" fill="none" xmlns="http://www.w3.org/2000/svg">
<path d="M20.4699 2.35L19.1299 1.79V10.82L21.5599 4.96C21.9699 3.94 21.4999 2.77 20.4699 2.35M0.969884 6.05L5.92988 18C6.07594 18.3636 6.32507 18.6765 6.64665 18.9004C6.96822 19.1243 7.34821 19.2493 7.73988 19.26C7.99988 19.26 8.26988 19.21 8.52988 19.1L15.8999 16.05C16.6499 15.74 17.1099 15 17.1299 14.26C17.1399 14 17.0899 13.71 16.9999 13.45L11.9999 1.5C11.8585 1.13402 11.6103 0.819061 11.2875 0.596117C10.9647 0.373172 10.5822 0.252568 10.1899 0.25C9.92988 0.25 9.66988 0.31 9.41988 0.4L2.05988 3.45C1.57065 3.65035 1.181 4.03678 0.976596 4.52433C0.772197 5.01189 0.769783 5.56066 0.969884 6.05M17.1199 2.25C17.1199 1.71957 16.9092 1.21086 16.5341 0.835786C16.159 0.460714 15.6503 0.25 15.1199 0.25H13.6699L17.1199 8.59" fill="#07A157"/>
</svg>
